<?xml version="1.0" standalone="no"?>
<!DOCTYPE svg PUBLIC "-//W3C//DTD SVG 1.1//EN" "http://www.w3.org/Graphics/SVG/1.1/DTD/svg11.dtd" >
<svg>
<metadata>
Created by FontForge 20090914 at Mon Aug 21 18:12:28 2017
 By www-data
Copyright (c) 2017, Amin Abedi (aminabedi68@gmail.com-www.instagram.com/aminabedi68),
with Reserved Font Name Cherry.
</metadata>
<defs>
<font id="CherryMonospace-Light" horiz-adv-x="1270" >
  <font-face 
    font-family="Cherry"
    font-weight="300"
    font-stretch="normal"
    units-per-em="2048"
    panose-1="2 0 3 3 0 0 0 0 0 0"
    ascent="1638"
    descent="-410"
    x-height="1008"
    cap-height="1594"
    bbox="0 -586.002 1374 2180"
    underline-thickness="0"
    underline-position="0"
    unicode-range="U+0020-U+20AC"
  />
<missing-glyph horiz-adv-x="748" 
d="M68 0v1365h544v-1365h-544zM136 68h408v1229h-408v-1229z" />
    <glyph glyph-name=".notdef" horiz-adv-x="748" 
d="M68 0v1365h544v-1365h-544zM136 68h408v1229h-408v-1229z" />
    <glyph glyph-name="space" unicode=" " 
 />
    <glyph glyph-name="exclam" unicode="!" 
d="M605 1994h60v-1354h-60v1354zM576 138h140v-138h-140v138z" />
    <glyph glyph-name="quotedbl" unicode="&#x22;" 
d="M878 1148h-80l-30 446h140zM494 1148h-80l-30 446h140z" />
    <glyph glyph-name="numbersign" unicode="#" 
d="M437 1594h60v-501h276v501h60v-501h306v-60h-306v-472h306v-60h-306v-501h-60v501h-276v-501h-60v501h-306v60h306v472h-306v60h306v501zM497 1033v-472h276v472h-276z" />
    <glyph glyph-name="dollar" unicode="$" 
d="M605 1654h60v-61c81.333 -4.66699 158.333 -25.834 231 -63.501s131.334 -87.334 176.001 -149.001s67 -126.834 67 -195.501h-60c0 56 -19.167 110.167 -57.5 162.5s-89.5 95.166 -153.5 128.499s-131.667 52.333 -203 57v-710c65.333 -12 125.333 -28.833 180 -50.5
s104.5 -48.834 149.5 -81.501s80.333 -73 106 -121s38.5 -101.667 38.5 -161c0 -80 -22.667 -151 -68 -213s-103.333 -109 -174 -141s-148 -50 -232 -54v-61h-60v61c-81.333 4.66699 -158.333 25.834 -231 63.501s-131.334 87.334 -176.001 149.001s-67 126.834 -67 195.501
h60c0 -56 19.167 -110.167 57.5 -162.5s89.5 -95.166 153.5 -128.499s131.667 -52.333 203 -57v710c-65.333 12 -125.333 28.833 -180 50.5s-104.5 48.834 -149.5 81.501s-80.333 73 -106 121s-38.5 101.667 -38.5 161c0 80 22.667 151 68 213s103.333 109 174 141
s148 50 232 54v61zM605 1533c-114.667 -5.33301 -212.333 -39.5 -293 -102.5s-121 -144.833 -121 -245.5c0 -51.333 12 -97.833 36 -139.5s56.667 -76.167 98 -103.5s85 -49.833 131 -67.5s95.667 -31.5 149 -41.5v700zM665.001 761l-0.000976562 -700
c114.667 5.33301 212.334 39.5 293.001 102.5s121 144.833 121 245.5c0 51.333 -12 97.833 -36 139.5s-56.667 76.167 -98 103.5s-85 49.833 -131 67.5s-95.667 31.5 -149 41.5z" />
    <glyph glyph-name="percent" unicode="%" 
d="M430 1594c82.667 0 153.167 -29.167 211.5 -87.5s87.5 -128.833 87.5 -211.5s-29.167 -153.167 -87.5 -211.5s-128.833 -87.5 -211.5 -87.5s-153.167 29.167 -211.5 87.5s-87.5 128.833 -87.5 211.5s29.167 153.167 87.5 211.5s128.833 87.5 211.5 87.5zM430 1534
c-66 0 -122.333 -23.333 -169 -70s-70 -103 -70 -169s23.333 -122.333 70 -169s103 -70 169 -70s122.333 23.333 169 70s70 103 70 169s-23.333 122.333 -70 169s-103 70 -169 70zM840 598c82.667 0 153.167 -29.167 211.5 -87.5s87.5 -128.833 87.5 -211.5
s-29.167 -153.167 -87.5 -211.5s-128.833 -87.5 -211.5 -87.5s-153.167 29.167 -211.5 87.5s-87.5 128.833 -87.5 211.5s29.167 153.167 87.5 211.5s128.833 87.5 211.5 87.5zM840 538c-66 0 -122.333 -23.333 -169 -70s-70 -103 -70 -169s23.333 -122.333 70 -169
s103 -70 169 -70s122.333 23.333 169 70s70 103 70 169s-23.333 122.333 -70 169s-103 70 -169 70zM142 0l938 1594h70l-938 -1594h-70z" />
    <glyph glyph-name="ampersand" unicode="&#x26;" 
d="M635 1594c91.333 0 167.999 -32.001 229.999 -96.001s93 -139.667 93 -227c0 -43.333 -7.83301 -83.166 -23.5 -119.499s-36.334 -67 -62.001 -92s-56.667 -47.167 -93 -66.5s-73.166 -34.833 -110.499 -46.5s-77.666 -21.167 -120.999 -28.5l439 -683
c61.333 81.333 92 171 92 269h60c0 -118.667 -39.333 -225.667 -118 -321l118 -183h-72l-88 137c-38.667 -37.333 -89.334 -69.5 -152.001 -96.5s-126.667 -40.5 -192 -40.5c-88.667 -0 -171.667 21.833 -249 65.5s-139.166 104.334 -185.499 182.001
s-69.5 163.167 -69.5 256.5c0 102.667 28.667 195.667 86 279s136 141 236 173l-88 137c-35.333 55.333 -53 114.333 -53 177c0 89.333 31.5 165.666 94.5 228.999s139.167 95 228.5 95zM897.999 1271c0 71.333 -25 133 -75 185s-112.667 78 -188 78
c-72.667 0 -134.667 -25.833 -186 -77.5s-77 -113.834 -77 -186.501c0 -52 14.333 -100.333 43 -145l99 -153c40.667 8 75.667 15.833 105 23.5s62.833 19.334 100.5 35.001s68.5 33.5 92.5 53.5s44.333 46 61 78s25 68.333 25 109zM486.999 902.999
c-92.667 -26.667 -165.168 -76.499 -217.501 -149.499s-78.5 -156.167 -78.5 -249.5c0 -82.667 20.5 -158.334 61.5 -227.001s95.333 -122 163 -160s140.834 -57 219.501 -57c121.333 0 225 43 311 129z" />
    <glyph glyph-name="quotesingle" unicode="'" 
d="M675 1148h-80l-30 446h140z" />
    <glyph glyph-name="parenleft" unicode="(" 
d="M743 1594h80c-100.667 -107.333 -178.5 -229.833 -233.5 -367.5s-82.5 -280.834 -82.5 -429.501s27.5 -291.834 82.5 -429.501s132.833 -260.167 233.5 -367.5h-80c-94.667 110.667 -167.667 234.334 -219 371.001s-77 278.667 -77 426s25.667 289.333 77 426
s124.333 260.334 219 371.001z" />
    <glyph glyph-name="parenright" unicode=")" 
d="M527 0h-80c100.667 107.333 178.5 229.833 233.5 367.5s82.5 280.834 82.5 429.501s-27.5 291.834 -82.5 429.501s-132.833 260.167 -233.5 367.5h80c94.667 -110.667 167.667 -234.334 219 -371.001s77 -278.667 77 -426s-25.667 -289.333 -77 -426
s-124.333 -260.334 -219 -371.001z" />
    <glyph glyph-name="asterisk" unicode="*" 
d="M605 1594h60v-452l392 226l30 -52l-392 -226l392 -226l-30 -52l-392 226v-452h-60v452l-392 -226l-30 52l392 226l-392 226l30 52l392 -226v452z" />
    <glyph glyph-name="plus" unicode="+" 
d="M665 646h474v-60h-474v-474h-60v474h-474v60h474v474h60v-474z" />
    <glyph glyph-name="comma" unicode="," 
d="M485 -306l160 444h140l-190 -444h-110z" />
    <glyph glyph-name="hyphen" unicode="-" 
d="M131 646h1008v-60h-1008v60z" />
    <glyph glyph-name="period" unicode="." 
d="M565 138h140v-138h-140v138z" />
    <glyph glyph-name="slash" unicode="/" 
d="M131 0l938 1594h70l-938 -1594h-70z" />
    <glyph glyph-name="zero" unicode="0" 
d="M635 1594c139.333 0 258.166 -49.167 356.499 -147.5s147.5 -217.166 147.5 -356.499v-586c0 -139.333 -49.167 -258.166 -147.5 -356.499s-217.166 -147.5 -356.499 -147.5s-258.166 49.167 -356.499 147.5s-147.5 217.166 -147.5 356.499v586
c0 139.333 49.167 258.166 147.5 356.499s217.166 147.5 356.499 147.5zM635 1534c-123.333 0 -228.167 -43.332 -314.5 -129.999s-129.5 -191.334 -129.5 -314.001v-586c0 -90 25 -172.667 75 -248l699 1132c-41.333 46 -90.5 81.833 -147.5 107.5
s-117.833 38.5 -182.5 38.5zM1004 1337l-698.999 -1131c41.333 -46 90.5 -81.833 147.5 -107.5s117.833 -38.5 182.5 -38.5c123.333 0 228.166 43.333 314.499 130s129.5 191.334 129.5 314.001v586c0 89.333 -25 171.666 -75 246.999z" />
    <glyph glyph-name="one" unicode="1" 
d="M704 1594h73v-1534h362v-60h-1008v60h586v1473l-586 -339v69z" />
    <glyph glyph-name="two" unicode="2" 
d="M131 0c0 154.667 40.168 277.168 120.501 367.501s201.5 157.166 363.5 200.499c70 18.667 132.333 42.167 187 70.5s99.167 58.333 133.5 90s62.5 66.667 84.5 105s37.333 76.166 46 113.499s13 76.333 13 117c0 80.667 -18.833 156.834 -56.5 228.501
s-90.834 129.834 -159.501 174.501s-144.667 67 -228 67c-78.667 0 -152 -20.5 -220 -61.5s-122.333 -97.667 -163 -170s-61 -151.833 -61 -238.5h-60c0 94.667 22 182.5 66 263.5s104.833 145.667 182.5 194s162.834 72.5 255.501 72.5
c67.333 0 131.833 -13.833 193.5 -41.5s115.334 -64.834 161.001 -111.501s82 -103 109 -169s40.5 -135.333 40.5 -208c0 -136.667 -44.833 -252.334 -134.5 -347.001s-213.834 -163.334 -372.501 -206.001c-62 -16.667 -117.333 -36.667 -166 -60
s-93.834 -52.666 -135.501 -87.999s-74.5 -78.666 -98.5 -129.999s-37.333 -109 -40 -173h887v349h60v-409h-1008z" />
    <glyph glyph-name="three" unicode="3" 
d="M725 0l-180 0.000976562c-114 0 -211.5 40.333 -292.5 121s-121.5 178 -121.5 292h60c0 -97.333 34.5 -180.5 103.5 -249.5s152.5 -103.5 250.5 -103.5h180c96.667 0 179.834 34.333 249.501 103s104.5 152 104.5 250s-34.833 181.5 -104.5 250.5
s-152.834 103.5 -249.501 103.5h-272v60h272c96.667 0 179.834 34.333 249.501 103s104.5 152 104.5 250s-35 181.5 -105 250.5s-153 103.5 -249 103.5h-180c-110 0 -196.333 -32.833 -259 -98.5s-94.334 -150.834 -95.001 -255.501h-60c0 114 40.5 211.5 121.5 292.5
s178.5 121.5 292.5 121.5h180c116 0 214 -40.167 294 -120.5s120 -180.5 120 -300.5c0 -86 -24.667 -162.667 -74 -230s-111.333 -116 -186 -146c75.333 -30 137.5 -79.5 186.5 -148.5s73.5 -147.5 73.5 -235.5c0 -112.667 -40.5 -209.667 -121.5 -291
s-178.5 -122 -292.5 -122z" />
    <glyph glyph-name="four" unicode="4" 
d="M892 1594h66v-1241h181v-60h-181v-293h-60v293h-767v86zM898 1489l-713 -1136h713v1136z" />
    <glyph glyph-name="five" unicode="5" 
d="M131 1594h1008v-60h-945l-3 -555c51.333 66.667 112.666 118.5 183.999 155.5s146.333 55.5 225 55.5c74.667 0 145.5 -16 212.5 -48s124.167 -74.833 171.5 -128.5s85 -117 113 -190s42 -149.167 42 -228.5s-14 -155.5 -42 -228.5s-65.833 -136.333 -113.5 -190
s-105.167 -96.5 -172.5 -128.5s-138.666 -48 -213.999 -48c-95.333 0 -184.833 26.667 -268.5 80s-149.5 126.333 -197.5 219h69c44.667 -75.333 102.334 -134 173.001 -176s145.334 -63 224.001 -63c88.667 0 170.167 24 244.5 72s132.5 113 174.5 195s63 171.333 63 268
s-21.167 186 -63.5 268s-100.333 147 -174 195s-154.167 72 -241.5 72c-84 0 -162.833 -23.333 -236.5 -70s-132.167 -112 -175.5 -196h-57v730z" />
    <glyph glyph-name="six" unicode="6" 
d="M635 1594c91.333 0 175.665 -22.501 252.998 -67.501s138.5 -106.167 183.5 -183.5s67.5 -161.666 67.5 -252.999h-60c0 122.667 -43.167 227.334 -129.5 314.001s-191.166 130 -314.499 130s-228.166 -43.333 -314.499 -130s-129.5 -191.334 -129.5 -314.001v-348
c43.333 80.667 104.5 145.167 183.5 193.5s165.833 72.5 260.5 72.5c91.333 0 175.666 -22.5 252.999 -67.5s138.5 -106.167 183.5 -183.5s67.5 -161.666 67.5 -252.999s-22.5 -175.666 -67.5 -252.999s-106.167 -138.5 -183.5 -183.5s-161.666 -67.5 -252.999 -67.5
s-175.666 22.5 -252.999 67.5s-138.5 106.167 -183.5 183.5s-67.5 161.666 -67.5 252.999v586c0 91.333 22.5 175.666 67.5 252.999s106.167 138.5 183.5 183.5s161.666 67.5 252.999 67.5zM634.999 947.999c-123.333 0 -228.166 -43.333 -314.499 -130
s-129.5 -191.334 -129.5 -314.001s43.167 -227.334 129.5 -314.001s191.166 -130 314.499 -130s228.166 43.333 314.499 130s129.5 191.334 129.5 314.001s-43.167 227.334 -129.5 314.001s-191.166 130 -314.499 130z" />
    <glyph glyph-name="seven" unicode="7" 
d="M131 1594h1008v-42l-665 -1552h-66l655 1534h-932v60z" />
    <glyph glyph-name="eight" unicode="8" 
d="M635 1594c112.667 0 209.329 -34.5 289.996 -103.5s121 -152.833 121 -251.5c0 -71.333 -22 -135.666 -66 -192.999s-102 -100.333 -174 -129c98.667 -33.333 178.834 -90.5 240.501 -171.5s92.5 -172.167 92.5 -273.5c0 -86 -22.667 -165.167 -68 -237.5
s-106.666 -129.5 -183.999 -171.5s-161.333 -63 -252 -63s-174.667 21 -252 63s-138.666 99.167 -183.999 171.5s-68 151.5 -68 237.5c0 101.333 30.833 192.5 92.5 273.5s141.834 138.167 240.501 171.5c-72 28.667 -130.167 71.667 -174.5 129
s-66.5 121.666 -66.5 192.999c0 98.667 40.5 182.5 121.5 251.5s177.833 103.5 290.5 103.5zM634.995 1534c-98 0 -181.167 -29 -249.5 -87s-102.5 -127.333 -102.5 -208s34.167 -149.834 102.5 -207.501s151.5 -86.5 249.5 -86.5s181 28.833 249 86.5
s102 126.834 102 207.501s-34 150 -102 208s-151 87 -249 87zM634.995 885c-123.333 0 -228.166 -40.333 -314.499 -121s-129.5 -178 -129.5 -292s43.167 -211.167 129.5 -291.5s191.166 -120.5 314.499 -120.5s228.166 40.167 314.499 120.5s129.5 177.5 129.5 291.5
s-43.167 211.333 -129.5 292s-191.166 121 -314.499 121z" />
    <glyph glyph-name="nine" unicode="9" 
d="M635 0c-91.333 0 -175.665 22.501 -252.998 67.501s-138.5 106.167 -183.5 183.5s-67.5 161.666 -67.5 252.999h60c0 -122.667 43.167 -227.334 129.5 -314.001s191.166 -130 314.499 -130s228.166 43.333 314.499 130s129.5 191.334 129.5 314.001v348
c-43.333 -80.667 -104.5 -145.167 -183.5 -193.5s-165.833 -72.5 -260.5 -72.5c-91.333 0 -175.666 22.5 -252.999 67.5s-138.5 106.167 -183.5 183.5s-67.5 161.666 -67.5 252.999s22.5 175.666 67.5 252.999s106.167 138.5 183.5 183.5s161.666 67.5 252.999 67.5
s175.666 -22.5 252.999 -67.5s138.5 -106.167 183.5 -183.5s67.5 -161.666 67.5 -252.999v-586c0 -91.333 -22.5 -175.666 -67.5 -252.999s-106.167 -138.5 -183.5 -183.5s-161.666 -67.5 -252.999 -67.5zM635.001 646.001c123.333 0 228.166 43.333 314.499 130
s129.5 191.334 129.5 314.001s-43.167 227.334 -129.5 314.001s-191.166 130 -314.499 130s-228.166 -43.333 -314.499 -130s-129.5 -191.334 -129.5 -314.001s43.167 -227.334 129.5 -314.001s191.166 -130 314.499 -130z" />
    <glyph glyph-name="colon" unicode=":" 
d="M565 1008h140v-138h-140v138zM565 138h140v-138h-140v138z" />
    <glyph glyph-name="semicolon" unicode=";" 
d="M485 -306l160 444h140l-190 -444h-110zM645 1008h140v-138h-140v138z" />
    <glyph glyph-name="less" unicode="&#x3c;" 
d="M904 1041v-84l-453 -453l453 -453v-85l-538 538z" />
    <glyph glyph-name="equal" unicode="=" 
d="M131 1058h1008v-60h-1008v60zM131 646h1008v-60h-1008v60z" />
    <glyph glyph-name="greater" unicode="&#x3e;" 
d="M366 -34v84l453 453l-453 453v85l538 -538z" />
    <glyph glyph-name="question" unicode="?" 
d="M635 1594c66 0 129.665 -12.8291 190.998 -38.4961s115 -60.834 161 -105.501s82.833 -99.834 110.5 -165.501s41.5 -136.167 41.5 -211.5c0 -50 -5.83301 -95.5 -17.5 -136.5s-26.167 -74.667 -43.5 -101s-39 -51.833 -65 -76.5s-50.833 -45 -74.5 -61
s-50 -34.833 -79 -56.5s-52.833 -41.834 -71.5 -60.501c-49.333 -49.333 -82.166 -102.166 -98.499 -158.499s-24.5 -120.5 -24.5 -192.5h-60c0 80.667 9.16699 152 27.5 214s57.166 122.667 116.499 182c21.333 21.333 49.166 44.333 83.499 69l90 66.5
c25.667 19.667 51.334 43.334 77.001 71.001s45.334 61.167 59.001 100.5s20.5 84.666 20.5 135.999c-0.666992 137.333 -44.167 249.166 -130.5 335.499s-190.833 129.5 -313.5 129.5c-121.333 0 -225.666 -43 -312.999 -129s-131 -191 -131 -315h-60
c0 92.667 22.833 177.667 68.5 255s107.167 138.166 184.5 182.499s161 66.5 251 66.5zM564.998 138.004h140v-138h-140v138z" />
    <glyph glyph-name="at" unicode="@" 
d="M635 1301c91.333 0 175.666 -22.5 252.999 -67.5s138.5 -106.167 183.5 -183.5s67.5 -161.666 67.5 -252.999s-22.5 -175.666 -67.5 -252.999s-106.167 -138.5 -183.5 -183.5s-161.666 -67.5 -252.999 -67.5s-175.666 22.5 -252.999 67.5s-138.5 106.167 -183.5 183.5
s-67.5 161.666 -67.5 252.999s22.5 175.666 67.5 252.999s106.167 138.5 183.5 183.5s161.666 67.5 252.999 67.5zM635 1241c-80.667 0 -155 -19.833 -223 -59.5s-121.833 -93.5 -161.5 -161.5s-59.5 -142.333 -59.5 -223s19.833 -155 59.5 -223s93.5 -121.833 161.5 -161.5
s142.333 -59.5 223 -59.5s155 19.833 223 59.5s121.833 93.5 161.5 161.5s59.5 142.333 59.5 223s-19.833 155 -59.5 223s-93.5 121.833 -161.5 161.5s-142.333 59.5 -223 59.5zM635 1101c49.333 0 95.333 -11 138 -33s78 -52 106 -90v93h60v-548h-60v93
c-28 -38 -63.333 -68 -106 -90s-88.667 -33 -138 -33c-83.333 0 -154.833 29.833 -214.5 89.5s-89.5 131.167 -89.5 214.5s29.833 154.833 89.5 214.5s131.167 89.5 214.5 89.5zM635 1041c-67.333 0 -124.833 -23.833 -172.5 -71.5s-71.5 -105.167 -71.5 -172.5
s23.833 -124.833 71.5 -172.5s105.167 -71.5 172.5 -71.5s124.833 23.833 172.5 71.5s71.5 105.167 71.5 172.5s-23.833 124.833 -71.5 172.5s-105.167 71.5 -172.5 71.5z" />
    <glyph glyph-name="A" unicode="A" 
d="M606 1594h58l475 -1594h-63l-174 586h-534l-174 -586h-63zM635 1480l-249 -834h498z" />
    <glyph glyph-name="B" unicode="B" 
d="M629 1594c87.333 0 162 -31.5 224 -94.5s93 -139.167 93 -228.5c0 -60.667 -15.5 -116.5 -46.5 -167.5s-72.167 -90.167 -123.5 -117.5c106 -31.333 193 -91.333 261 -180s102 -189.334 102 -302.001c0 -91.333 -22.833 -175.666 -68.5 -252.999
s-107.667 -138.5 -186 -183.5s-163.5 -67.5 -255.5 -67.5h-498v1594h498zM629 1534h-438v-526h438c71.333 0 132 25.667 182 77s75 113.333 75 186s-25 134.667 -75 186s-110.667 77 -182 77zM191 948v-888h438c81.333 0 156.666 19.833 225.999 59.5s124 93.5 164 161.5
s60 142.333 60 223s-20 155 -60 223s-94.667 121.833 -164 161.5s-144.666 59.5 -225.999 59.5h-438z" />
    <glyph glyph-name="C" unicode="C" 
d="M925 1594c71.333 0 142.667 -9.66699 214 -29v-62c-68 20.667 -138.333 31 -211 31c-108 0 -211.5 -22.667 -310.5 -68s-183.833 -110.333 -254.5 -195c-114.667 -136.667 -172 -294.667 -172 -474s57.333 -337.333 172 -474c70.667 -84.667 155.5 -149.667 254.5 -195
s202.5 -68 310.5 -68c72.667 0 143 10.333 211 31v-63c-68 -18.667 -138.333 -28 -211 -28c-116 0 -227.667 24.5 -335 73.5s-199.333 119.5 -276 211.5c-61.333 72.667 -107.666 153 -138.999 241s-47 178.333 -47 271s15.667 183 47 271s77.666 168.333 138.999 241
c76.667 91.333 168.167 161.5 274.5 210.5s217.5 73.833 333.5 74.5z" />
    <glyph glyph-name="D" unicode="D" 
d="M131 1594h367c87.333 0 170.666 -21.167 249.999 -63.5s147.5 -99.333 204.5 -171s102.333 -156.5 136 -254.5s50.5 -200.667 50.5 -308s-16.833 -210 -50.5 -308s-79 -182.833 -136 -254.5s-125.167 -128.667 -204.5 -171s-162.666 -63.5 -249.999 -63.5h-367v1594z
M191 60l307 0.00195312c78 0 152.667 19.333 224 58s133.166 90.667 185.499 156s94 143.666 125 234.999s46.5 187.333 46.5 288s-15.5 196.667 -46.5 288s-72.667 169.666 -125 234.999s-114.166 117.333 -185.499 156s-146 58 -224 58h-307v-1474z" />
    <glyph glyph-name="E" unicode="E" 
d="M131 1594h1008v-60h-948v-888h948v-60h-948v-526h948v-60h-1008v1594z" />
    <glyph glyph-name="F" unicode="F" 
d="M131 1594h1008v-60h-948v-888h948v-60h-948v-586h-60v1594z" />
    <glyph glyph-name="G" unicode="G" 
d="M771 1534c-104 0 -200.5 -32.498 -289.5 -97.498s-159.667 -154.167 -212 -267.5s-78.5 -237.333 -78.5 -372s26.167 -258.667 78.5 -372s123 -202.5 212 -267.5s185.5 -97.5 289.5 -97.5h308v707h-351v60h411v-827h-368c-116.667 0 -224.167 35.833 -322.5 107.5
s-175.833 168.667 -232.5 291s-85 255.166 -85 398.499s28.333 276.166 85 398.499s134.167 219.333 232.5 291s205.833 107.5 322.5 107.5h368v-60h-368z" />
    <glyph glyph-name="H" unicode="H" 
d="M131 1594h60v-948h888v948h60v-1594h-60v586h-888v-586h-60v1594z" />
    <glyph glyph-name="I" unicode="I" 
d="M131 1594h1008v-60h-362v-1474h362v-60h-1008v60h586v1474h-586v60z" />
    <glyph glyph-name="J" unicode="J" 
d="M131 1594h1008v-1084c0 -92 -22.5 -177.167 -67.5 -255.5s-106.167 -140.333 -183.5 -186s-161.666 -68.5 -252.999 -68.5s-175.666 22.833 -252.999 68.5s-138.5 107.667 -183.5 186s-67.5 163.5 -67.5 255.5h60c0 -81.333 19.833 -156.666 59.5 -225.999
s93.5 -124 161.5 -164s142.333 -60 223 -60s155 20 223 60s121.833 94.667 161.5 164s59.5 144.666 59.5 225.999v1024h-948v60z" />
    <glyph glyph-name="K" unicode="K" 
d="M131 1594h60v-859l863 859h85l-801 -798l801 -796h-85l-759 754l-104 -103v-651h-60v1594z" />
    <glyph glyph-name="L" unicode="L" 
d="M131 1594h60v-1534h948v-60h-1008v1594z" />
    <glyph glyph-name="M" unicode="M" 
d="M194 1594l441 -909l440 909h64v-1594h-60v1463l-417 -860h-54l-417 860v-1463h-60v1594h63z" />
    <glyph glyph-name="N" unicode="N" 
d="M196 1594l883 -1485v1485h60v-1594h-65l-883 1485v-1485h-60v1594h65z" />
    <glyph glyph-name="O" unicode="O" 
d="M635 1594c139.333 0 258.166 -49.167 356.499 -147.5s147.5 -217.166 147.5 -356.499v-586c0 -139.333 -49.167 -258.166 -147.5 -356.499s-217.166 -147.5 -356.499 -147.5s-258.166 49.167 -356.499 147.5s-147.5 217.166 -147.5 356.499v586
c0 139.333 49.167 258.166 147.5 356.499s217.166 147.5 356.499 147.5zM635 1534c-123.333 0 -228.166 -43.333 -314.499 -130s-129.5 -191.334 -129.5 -314.001v-586c0 -122.667 43.167 -227.334 129.5 -314.001s191.166 -130 314.499 -130s228.166 43.333 314.499 130
s129.5 191.334 129.5 314.001v586c0 122.667 -43.167 227.334 -129.5 314.001s-191.166 130 -314.499 130z" />
    <glyph glyph-name="P" unicode="P" 
d="M131 0v1594h498c92 0 177.167 -22.5 255.5 -67.5s140.333 -106.167 186 -183.5s68.5 -161.666 68.5 -252.999s-22.833 -175.666 -68.5 -252.999s-107.667 -138.5 -186 -183.5s-163.5 -67.5 -255.5 -67.5h-438v-586h-60zM629 1534h-438v-888h438
c81.333 0 156.666 19.833 225.999 59.5s124 93.5 164 161.5s60 142.333 60 223s-20 155 -60 223s-94.667 121.833 -164 161.5s-144.666 59.5 -225.999 59.5z" />
    <glyph glyph-name="Q" unicode="Q" 
d="M635 1594c139.333 0 258.167 -49.166 356.5 -147.499s147.5 -217.166 147.5 -356.499v-586c0 -117.333 -36.333 -222 -109 -314l109 -190h-69l-83 144c-98 -96 -215.333 -144 -352 -144c-139.333 0 -258.166 49.167 -356.499 147.5s-147.5 217.166 -147.5 356.499v586
c0 139.333 49.167 258.166 147.5 356.499s217.166 147.5 356.499 147.5zM635.001 1534c-123.333 0 -228.166 -43.332 -314.499 -129.999s-129.5 -191.334 -129.5 -314.001v-586c0 -122.667 43.167 -227.334 129.5 -314.001s191.166 -130 314.499 -130
c127.333 0 234.666 45.667 321.999 137l-240 419h69l211 -369c54.667 77.333 82 163 82 257v586c0 122.667 -43.167 227.334 -129.5 314.001s-191.166 130 -314.499 130z" />
    <glyph glyph-name="R" unicode="R" 
d="M131 1594l498 -0.000976562c92 0 177.167 -22.5 255.5 -67.5s140.333 -106.167 186 -183.5s68.5 -161.666 68.5 -252.999c0 -110 -32.667 -209 -98 -297s-149.333 -148.667 -252 -182l350 -611h-69l-342 595c-32 -6 -65 -9 -99 -9h-438v-586h-60v1594zM191 1534v-888h438
c81.333 0 156.666 19.833 225.999 59.5s124 93.5 164 161.5s60 142.333 60 223s-20 155 -60 223s-94.667 121.833 -164 161.5s-144.666 59.5 -225.999 59.5h-438z" />
    <glyph glyph-name="S" unicode="S" 
d="M1079 409c0 44 -9.16699 84.5 -27.5 121.5s-42 68.167 -71 93.5s-63.667 48 -104 68s-80.5 35.667 -120.5 47s-82 20.666 -126 27.999c-68 11.333 -130.667 27.5 -188 48.5s-110 48 -158 81s-85.5 74.167 -112.5 123.5s-40.5 104.333 -40.5 165
c0 83.333 24.333 156.666 73 219.999s110.834 110.666 186.501 141.999s157.167 47 244.5 47c84.667 0 165.834 -18.5 243.501 -55.5s140.5 -87.167 188.5 -150.5s72 -131 72 -203h-60c0 58.667 -20.833 115 -62.5 169s-96.834 97.5 -165.501 130.5s-140.667 49.5 -216 49.5
c-78 0 -150.333 -13.5 -217 -40.5s-121.167 -67.5 -163.5 -121.5s-63.5 -116.333 -63.5 -187c0 -44 9.16699 -84.5 27.5 -121.5s42 -68.167 71 -93.5s63.667 -48 104 -68s80.5 -35.667 120.5 -47s82 -20.666 126 -27.999c68 -11.333 130.667 -27.5 188 -48.5
s110 -48 158 -81s85.5 -74.167 112.5 -123.5s40.5 -104.333 40.5 -165c0 -83.333 -24.333 -156.666 -73 -219.999s-110.834 -110.666 -186.501 -141.999s-157.167 -47 -244.5 -47c-84.667 0 -165.834 18.5 -243.501 55.5s-140.5 87.167 -188.5 150.5s-72 131 -72 203h60
c0 -58.667 20.833 -115 62.5 -169s96.834 -97.5 165.501 -130.5s140.667 -49.5 216 -49.5c78 0 150.333 13.5 217 40.5s121.167 67.5 163.5 121.5s63.5 116.333 63.5 187z" />
    <glyph glyph-name="T" unicode="T" 
d="M131 1594h1008v-60h-474v-1534h-60v1534h-474v60z" />
    <glyph glyph-name="U" unicode="U" 
d="M191 504c0 -78 19.002 -151 57.002 -219s91.167 -122.5 159.5 -163.5s144.166 -61.5 227.499 -61.5s159.166 20.5 227.499 61.5s121.5 95.5 159.5 163.5s57 141 57 219v1090h60v-1090c0 -140 -49.5 -259 -148.5 -357s-217.5 -147 -355.5 -147s-256.5 49 -355.5 147
s-148.5 217 -148.5 357v1090h60v-1090z" />
    <glyph glyph-name="V" unicode="V" 
d="M635 114l441 1480h63l-475 -1594h-58l-475 1594h63z" />
    <glyph glyph-name="W" unicode="W" 
d="M663 987l273 -841l142 1448h61l-157 -1594h-62l-285 881l-286 -881h-61l-157 1594h60l143 -1448l272 841h57z" />
    <glyph glyph-name="X" unicode="X" 
d="M131 1594h70l434 -738l434 738h70l-469 -797l469 -797h-70l-434 738l-435 -738h-69l469 797z" />
    <glyph glyph-name="Y" unicode="Y" 
d="M131 1594h70l434 -738l434 738h70l-474 -805v-789h-60v789z" />
    <glyph glyph-name="Z" unicode="Z" 
d="M131 1594h1008v-85l-952 -1449h952v-60h-1008v85l952 1449h-952v60z" />
    <glyph glyph-name="bracketleft" unicode="[" 
d="M424 0v1594h422v-60h-362v-1474h362v-60h-422z" />
    <glyph glyph-name="backslash" unicode="\" 
d="M1069 0l-938 1594h70l938 -1594h-70z" />
    <glyph glyph-name="bracketright" unicode="]" 
d="M846 1594v-1594h-422v60h362v1474h-362v60h422z" />
    <glyph glyph-name="asciicircum" unicode="^" 
d="M1139 701v-84l-504 503l-504 -504v85l504 504z" />
    <glyph glyph-name="underscore" unicode="_" 
d="M0 60h1270v-60h-1270v60z" />
    <glyph glyph-name="grave" unicode="`" 
d="M785 1150h-110l-190 444h140z" />
    <glyph glyph-name="a" unicode="a" 
d="M635 1008c94.667 0 181.5 -24.165 260.5 -72.498s140.167 -112.833 183.5 -193.5v266h60v-504v-504h-60v266c-43.333 -80.667 -104.5 -145.167 -183.5 -193.5s-165.833 -72.5 -260.5 -72.5c-91.333 0 -175.666 22.5 -252.999 67.5s-138.5 106.167 -183.5 183.5
s-67.5 161.666 -67.5 252.999s22.5 175.666 67.5 252.999s106.167 138.5 183.5 183.5s161.666 67.5 252.999 67.5zM635 948.002c-123.333 0 -228.166 -43.333 -314.499 -130s-129.5 -191.334 -129.5 -314.001s43.167 -227.334 129.5 -314.001s191.166 -130 314.499 -130
s228.166 43.333 314.499 130s129.5 191.334 129.5 314.001s-43.167 227.334 -129.5 314.001s-191.166 130 -314.499 130z" />
    <glyph glyph-name="b" unicode="b" 
d="M635 1008c91.333 0 175.666 -22.502 252.999 -67.502s138.5 -106.167 183.5 -183.5s67.5 -161.666 67.5 -252.999s-22.5 -175.666 -67.5 -252.999s-106.167 -138.5 -183.5 -183.5s-161.666 -67.5 -252.999 -67.5c-94.667 0 -181.5 24.167 -260.5 72.5
s-140.167 112.833 -183.5 193.5v-266h-60v504v1090h60v-852c43.333 80.667 104.5 145.167 183.5 193.5s165.833 72.5 260.5 72.5zM635 947.998c-123.333 0 -228.166 -43.333 -314.499 -130s-129.5 -191.334 -129.5 -314.001s43.167 -227.334 129.5 -314.001
s191.166 -130 314.499 -130s228.166 43.333 314.499 130s129.5 191.334 129.5 314.001s-43.167 227.334 -129.5 314.001s-191.166 130 -314.499 130z" />
    <glyph glyph-name="c" unicode="c" 
d="M1139 0l-504 0.00390625c-91.333 0 -175.666 22.5 -252.999 67.5s-138.5 106.167 -183.5 183.5s-67.5 161.666 -67.5 252.999s22.5 175.666 67.5 252.999s106.167 138.5 183.5 183.5s161.666 67.5 252.999 67.5h504v-60h-504c-123.333 0 -228.166 -43.333 -314.499 -130
s-129.5 -191.334 -129.5 -314.001s43.167 -227.334 129.5 -314.001s191.166 -130 314.499 -130h504v-60z" />
    <glyph glyph-name="d" unicode="d" 
d="M635 1008c94.667 0 181.5 -24.165 260.5 -72.498s140.167 -112.833 183.5 -193.5v852h60v-1090v-504h-60v266c-43.333 -80.667 -104.5 -145.167 -183.5 -193.5s-165.833 -72.5 -260.5 -72.5c-91.333 0 -175.666 22.5 -252.999 67.5s-138.5 106.167 -183.5 183.5
s-67.5 161.666 -67.5 252.999s22.5 175.666 67.5 252.999s106.167 138.5 183.5 183.5s161.666 67.5 252.999 67.5zM635 948.002c-123.333 0 -228.166 -43.333 -314.499 -130s-129.5 -191.334 -129.5 -314.001s43.167 -227.334 129.5 -314.001s191.166 -130 314.499 -130
s228.166 43.333 314.499 130s129.5 191.334 129.5 314.001s-43.167 227.334 -129.5 314.001s-191.166 130 -314.499 130z" />
    <glyph glyph-name="e" unicode="e" 
d="M879 474h-687c7.33301 -116 53.5 -214 138.5 -294s186.5 -120 304.5 -120h504v-60h-504c-91.333 0 -175.666 22.5 -252.999 67.5s-138.5 106.167 -183.5 183.5s-67.5 161.666 -67.5 252.999s22.5 175.666 67.5 252.999s106.167 138.5 183.5 183.5
s161.666 67.5 252.999 67.5h244c72 0 133.333 -26.167 184 -78.5s76 -115.166 76 -188.499s-25.333 -136.166 -76 -188.499s-112 -78.5 -184 -78.5zM192 534l687 0.00195312c55.333 0 102.5 20.167 141.5 60.5s58.5 89.166 58.5 146.499s-19.5 106.166 -58.5 146.499
s-86.167 60.5 -141.5 60.5h-244c-118 0 -219.5 -40 -304.5 -120s-131.167 -178 -138.5 -294z" />
    <glyph glyph-name="f" unicode="f" 
d="M854 1534c-62.667 0 -115.834 -21.833 -159.501 -65.5s-65.5 -96.834 -65.5 -159.501v-663h510v-60h-510v-586h-60v586h-438v60h438v663c0 78.667 27.833 145.834 83.5 201.501s122.834 83.5 201.501 83.5h285v-60h-285z" />
    <glyph glyph-name="g" unicode="g" 
d="M1139 504v-585.998c0 -91.333 -22.5 -175.666 -67.5 -252.999s-106.167 -138.5 -183.5 -183.5s-161.666 -67.5 -252.999 -67.5s-175.666 22.5 -252.999 67.5s-138.5 106.167 -183.5 183.5s-67.5 161.666 -67.5 252.999h60c0 -122.667 43.167 -227.334 129.5 -314.001
s191.166 -130 314.499 -130s228.166 43.333 314.499 130s129.5 191.334 129.5 314.001v348c-43.333 -80.667 -104.5 -145.167 -183.5 -193.5s-165.833 -72.5 -260.5 -72.5c-91.333 0 -175.666 22.5 -252.999 67.5s-138.5 106.167 -183.5 183.5s-67.5 161.666 -67.5 252.999
s22.5 175.666 67.5 252.999s106.167 138.5 183.5 183.5s161.666 67.5 252.999 67.5c94.667 0 181.5 -24.167 260.5 -72.5s140.167 -112.833 183.5 -193.5v266h60v-504zM635 948.002c-123.333 0 -228.166 -43.333 -314.499 -130s-129.5 -191.334 -129.5 -314.001
s43.167 -227.334 129.5 -314.001s191.166 -130 314.499 -130s228.166 43.333 314.499 130s129.5 191.334 129.5 314.001s-43.167 227.334 -129.5 314.001s-191.166 130 -314.499 130z" />
    <glyph glyph-name="h" unicode="h" 
d="M131 1594l59.999 -0.000976562v-852c43.333 80.667 104.5 145.167 183.5 193.5s165.833 72.5 260.5 72.5c91.333 0 175.666 -22.5 252.999 -67.5s138.5 -106.167 183.5 -183.5s67.5 -161.666 67.5 -252.999v-504h-60v504c0 122.667 -43.167 227.334 -129.5 314.001
s-191.166 130 -314.499 130s-228.166 -43.333 -314.499 -130s-129.5 -191.334 -129.5 -314.001v-504h-60v1594z" />
    <glyph glyph-name="i" unicode="i" 
d="M665 60h474v-60h-1008v60h474v888h-474v60h1008v-60h-474v-888zM576 1594h140v-138h-140v138z" />
    <glyph glyph-name="j" unicode="j" 
d="M717 948h-586v60h1008v-60h-362v-1211c0 -88.667 -31.5 -164.667 -94.5 -228s-139.167 -95 -228.5 -95s-165.5 31.667 -228.5 95s-94.5 139.333 -94.5 228h60c0 -72.667 25.5 -134.667 76.5 -186s113.167 -77 186.5 -77c72.667 0 134.667 25.667 186 77
s77 113.333 77 186v1211zM576 1594h140v-138h-140v138z" />
    <glyph glyph-name="k" unicode="k" horiz-adv-x="1282" 
d="M368 1309c0 62.667 -21.833 115.834 -65.5 159.501s-96.834 65.5 -159.501 65.5v60c78.667 0 145.834 -27.833 201.501 -83.5s83.5 -122.834 83.5 -201.501v-939l634 586h89l-462 -425l462 -531h-80l-426 490l-217 -201v-229h201v-60h-498v60h237v1249z" />
    <glyph glyph-name="l" unicode="l" 
d="M638 1309c0 62.667 -21.833 115.834 -65.5 159.501s-96.834 65.5 -159.501 65.5h-282v60h282c78.667 0 145.834 -27.833 201.501 -83.5s83.5 -122.834 83.5 -201.501v-1249h441v-60h-1008v60h507v1249z" />
    <glyph glyph-name="m" unicode="m" 
d="M191 914c24.667 29.333 55.165 52.333 91.498 69s74.833 25 115.5 25c50.667 0 97.167 -12.833 139.5 -38.5s74.833 -59.5 97.5 -101.5c22.667 42 55.167 75.833 97.5 101.5s88.833 38.5 139.5 38.5c73.333 0 136.166 -25 188.499 -75s78.5 -110.333 78.5 -181v-752h-60
v752c0 54 -20.167 100.167 -60.5 138.5s-89.166 57.5 -146.499 57.5s-106.166 -19.167 -146.499 -57.5s-60.5 -84.5 -60.5 -138.5v-752h-60v752c0 54 -20.167 100.167 -60.5 138.5s-89.166 57.5 -146.499 57.5s-106 -18.833 -146 -56.5s-60.333 -83.5 -61 -137.5v-754h-60
v1008h60v-94z" />
    <glyph glyph-name="n" unicode="n" 
d="M635 1008c91.333 0 175.665 -22.501 252.998 -67.501s138.5 -106.167 183.5 -183.5s67.5 -161.666 67.5 -252.999v-504h-60v504c0 122.667 -43.167 227.334 -129.5 314.001s-191.166 130 -314.499 130s-228.166 -43.333 -314.499 -130s-129.5 -191.334 -129.5 -314.001
v-504h-60v1008h60v-266c43.333 80.667 104.5 145.167 183.5 193.5s165.833 72.5 260.5 72.5z" />
    <glyph glyph-name="o" unicode="o" 
d="M635 1008c91.333 0 175.666 -22.5 252.999 -67.5s138.5 -106.167 183.5 -183.5s67.5 -161.666 67.5 -252.999s-22.5 -175.666 -67.5 -252.999s-106.167 -138.5 -183.5 -183.5s-161.666 -67.5 -252.999 -67.5s-175.666 22.5 -252.999 67.5s-138.5 106.167 -183.5 183.5
s-67.5 161.666 -67.5 252.999s22.5 175.666 67.5 252.999s106.167 138.5 183.5 183.5s161.666 67.5 252.999 67.5zM635 948c-123.333 0 -228.166 -43.333 -314.499 -130s-129.5 -191.334 -129.5 -314.001s43.167 -227.334 129.5 -314.001s191.166 -130 314.499 -130
s228.166 43.333 314.499 130s129.5 191.334 129.5 314.001s-43.167 227.334 -129.5 314.001s-191.166 130 -314.499 130z" />
    <glyph glyph-name="p" unicode="p" 
d="M635 0c-94.667 0 -181.5 24.165 -260.5 72.498s-140.167 112.833 -183.5 193.5v-852h-60v1090v504h60v-266c43.333 80.667 104.5 145.167 183.5 193.5s165.833 72.5 260.5 72.5c91.333 0 175.666 -22.5 252.999 -67.5s138.5 -106.167 183.5 -183.5
s67.5 -161.666 67.5 -252.999s-22.5 -175.666 -67.5 -252.999s-106.167 -138.5 -183.5 -183.5s-161.666 -67.5 -252.999 -67.5zM635 59.998c123.333 0 228.166 43.333 314.499 130s129.5 191.334 129.5 314.001s-43.167 227.334 -129.5 314.001s-191.166 130 -314.499 130
s-228.166 -43.333 -314.499 -130s-129.5 -191.334 -129.5 -314.001s43.167 -227.334 129.5 -314.001s191.166 -130 314.499 -130z" />
    <glyph glyph-name="q" unicode="q" 
d="M635 0c-91.333 0 -175.666 22.502 -252.999 67.502s-138.5 106.167 -183.5 183.5s-67.5 161.666 -67.5 252.999s22.5 175.666 67.5 252.999s106.167 138.5 183.5 183.5s161.666 67.5 252.999 67.5c94.667 0 181.5 -24.167 260.5 -72.5s140.167 -112.833 183.5 -193.5v266
h60v-504v-1090h-60v852c-43.333 -80.667 -104.5 -145.167 -183.5 -193.5s-165.833 -72.5 -260.5 -72.5zM635 60.002c123.333 0 228.166 43.333 314.499 130s129.5 191.334 129.5 314.001s-43.167 227.334 -129.5 314.001s-191.166 130 -314.499 130
s-228.166 -43.333 -314.499 -130s-129.5 -191.334 -129.5 -314.001s43.167 -227.334 129.5 -314.001s191.166 -130 314.499 -130z" />
    <glyph glyph-name="r" unicode="r" 
d="M1139 924l0.00195312 -74c-81.333 65.333 -174.333 98 -279 98c-122.667 0 -227.334 -43.333 -314.001 -130s-130 -191.334 -130 -314.001v-504h-60v504v219c0 62.667 -21.833 115.834 -65.5 159.501s-96.834 65.5 -159.501 65.5v60c75.333 0 140.333 -25.833 195 -77.5
s84.334 -114.834 89.001 -189.501c43.333 80.667 104.666 145.334 183.999 194.001s166.333 73 261 73c101.333 0 194.333 -28 279 -84z" />
    <glyph glyph-name="s" unicode="s" 
d="M1079 288c0 38 -16.667 70.333 -50 97s-76.166 45.834 -128.499 57.501s-99.833 19.834 -142.5 24.501s-83.667 7 -123 7c-30.667 0 -61.667 1.16699 -93 3.5s-67.166 6.33301 -107.499 12s-77.5 14.5 -111.5 26.5s-66 26.667 -96 44s-53.5 39.666 -70.5 66.999
s-25.5 58.333 -25.5 93c0 44.667 11.333 84.5 34 119.5s51.5 62.833 86.5 83.5s75.667 37.667 122 51s90.666 22.333 132.999 27s85.166 7 128.499 7c40 0 81 -2.33301 123 -7s86.333 -13.334 133 -26.001s87.834 -28.667 123.501 -48s65.334 -45.166 89.001 -77.499
s35.5 -68.833 35.5 -109.5h-60c0 28 -8.33301 53.5 -25 76.5s-39.167 41.667 -67.5 56s-58.5 26.833 -90.5 37.5s-65.5 18.5 -100.5 23.5s-65.333 8.66699 -91 11s-48.834 3.5 -69.501 3.5c-36 0 -71.833 -1.66699 -107.5 -5s-74.5 -10.166 -116.5 -20.499
s-78.667 -23.5 -110 -39.5s-57.5 -38 -78.5 -66s-31.5 -60.333 -31.5 -97c0 -38 16.667 -70.333 50 -97s76.166 -45.834 128.499 -57.501s99.833 -19.834 142.5 -24.501s83.667 -7 123 -7c30.667 0 61.667 -1.16699 93 -3.5s67.166 -6.33301 107.499 -12
s77.5 -14.5 111.5 -26.5s66 -26.667 96 -44s53.5 -39.666 70.5 -66.999s25.5 -58.333 25.5 -93c0 -44.667 -11.333 -84.5 -34 -119.5s-51.5 -62.833 -86.5 -83.5s-75.667 -37.667 -122 -51s-90.666 -22.333 -132.999 -27s-85.166 -7 -128.499 -7c-40 0 -81 2.33301 -123 7
s-86.333 13.334 -133 26.001s-87.834 28.667 -123.501 48s-65.334 45.166 -89.001 77.499s-35.5 68.833 -35.5 109.5h60c0 -28 8.33301 -53.5 25 -76.5s39.167 -41.667 67.5 -56s58.5 -26.833 90.5 -37.5s65.5 -18.5 100.5 -23.5s65.333 -8.66699 91 -11
s48.834 -3.5 69.501 -3.5c36 0 71.833 1.66699 107.5 5s74.5 10.166 116.5 20.499s78.667 23.5 110 39.5s57.5 38 78.5 66s31.5 60.333 31.5 97z" />
    <glyph glyph-name="t" unicode="t" 
d="M569 1594h60v-586h510v-60h-510v-663c0 -62.667 21.833 -115.834 65.5 -159.501s96.834 -65.5 159.501 -65.5s115.834 21.833 159.501 65.5s65.5 96.834 65.5 159.501h60c0 -78.667 -27.833 -145.834 -83.5 -201.501s-122.834 -83.5 -201.501 -83.5
s-145.834 27.833 -201.501 83.5s-83.5 122.834 -83.5 201.501v663h-438v60h438v586z" />
    <glyph glyph-name="u" unicode="u" 
d="M635 0c-91.333 0 -175.665 22.501 -252.998 67.501s-138.5 106.167 -183.5 183.5s-67.5 161.666 -67.5 252.999v504h60v-504c0 -122.667 43.167 -227.334 129.5 -314.001s191.166 -130 314.499 -130s228.166 43.333 314.499 130s129.5 191.334 129.5 314.001v504h60
v-1008h-60v266c-43.333 -80.667 -104.5 -145.167 -183.5 -193.5s-165.833 -72.5 -260.5 -72.5z" />
    <glyph glyph-name="v" unicode="v" 
d="M197 1008l438 -937l438 937h66l-471 -1008h-66l-471 1008h66z" />
    <glyph glyph-name="w" unicode="w" 
d="M193 1008l212 -906l202 525h56l202 -525l212 906h62l-236 -1008h-63l-205 532l-205 -532h-63l-236 1008h62z" />
    <glyph glyph-name="x" unicode="x" 
d="M131 1008h82l422 -460l422 460h82l-464 -504l464 -504h-81l-423 460l-424 -460h-80l463 504z" />
    <glyph glyph-name="y" unicode="y" 
d="M1079 -82l0.000976562 348.001c-43.333 -80.667 -104.5 -145.167 -183.5 -193.5s-165.833 -72.5 -260.5 -72.5c-91.333 0 -175.666 22.5 -252.999 67.5s-138.5 106.167 -183.5 183.5s-67.5 161.666 -67.5 252.999v504h60v-504c0 -122.667 43.167 -227.334 129.5 -314.001
s191.166 -130 314.499 -130s228.166 43.333 314.499 130s129.5 191.334 129.5 314.001v504h60v-1090c0 -91.333 -22.5 -175.666 -67.5 -252.999s-106.167 -138.5 -183.5 -183.5s-161.666 -67.5 -252.999 -67.5s-175.666 22.5 -252.999 67.5s-138.5 106.167 -183.5 183.5
s-67.5 161.666 -67.5 252.999h60c0 -122.667 43.167 -227.334 129.5 -314.001s191.166 -130 314.499 -130s228.166 43.333 314.499 130s129.5 191.334 129.5 314.001z" />
    <glyph glyph-name="z" unicode="z" 
d="M131 1008h1008v-71l-932 -877h932v-60h-1008v71l932 877h-932v60z" />
    <glyph glyph-name="braceleft" unicode="{" 
d="M439 797c0 8.66699 2 17.002 6 25.002s7.83301 13.833 11.5 17.5s9.5 9.16699 17.5 16.5c4 3.33301 18.5 13.666 43.5 30.999s45.167 33.833 60.5 49.5s23 30.5 23 44.5c0 30 -0.833008 73.333 -2.5 130s-2.5 98 -2.5 124c0 42.667 1.83301 80.5 5.5 113.5
s10.5 65.5 20.5 97.5s23.5 58.333 40.5 79s39.667 37.334 68 50.001s61.833 19 100.5 19v-60c-31.333 0 -58 -5.33301 -80 -16s-39.167 -24.167 -51.5 -40.5s-21.833 -38.333 -28.5 -66s-10.834 -54.167 -12.501 -79.5s-2.5 -56.666 -2.5 -93.999
c0 -24.667 0.833008 -65.834 2.5 -123.501s2.5 -102.167 2.5 -133.5c0 -24.667 -8 -47.167 -24 -67.5s-39.167 -41.333 -69.5 -63s-48.166 -34.834 -53.499 -39.501c-6.66699 -6 -10 -10.667 -10 -14s3.33301 -8 10 -14c5.33301 -4.66699 23.166 -17.834 53.499 -39.501
s53.5 -42.667 69.5 -63s24 -42.833 24 -67.5c0 -31.333 -0.833008 -75.833 -2.5 -133.5s-2.5 -98.834 -2.5 -123.501c0 -37.333 0.833008 -68.666 2.5 -93.999s5.83398 -51.833 12.501 -79.5s16.167 -49.667 28.5 -66s29.5 -29.833 51.5 -40.5s48.667 -16 80 -16v-60
c-38.667 -0 -72.167 6.33301 -100.5 19s-51 29.334 -68 50.001s-30.5 47 -40.5 79s-16.833 64.5 -20.5 97.5s-5.5 70.833 -5.5 113.5c0 26 0.833008 67.333 2.5 124s2.5 100 2.5 130c0 14 -7.66699 28.833 -23 44.5s-35.5 32.167 -60.5 49.5s-39.5 27.666 -43.5 30.999
c-8 7.33301 -13.833 12.833 -17.5 16.5s-7.5 9.5 -11.5 17.5s-6 16.333 -6 25z" />
    <glyph glyph-name="bar" unicode="|" 
d="M605 1594h60v-1594h-60v1594z" />
    <glyph glyph-name="braceright" unicode="}" 
d="M831 797c0 -8.66699 -2 -17.002 -6 -25.002s-7.83301 -13.833 -11.5 -17.5s-9.5 -9.16699 -17.5 -16.5c-4 -3.33301 -18.5 -13.666 -43.5 -30.999s-45.167 -33.833 -60.5 -49.5s-23 -30.5 -23 -44.5c0 -30 0.833008 -73.333 2.5 -130s2.5 -98 2.5 -124
c0 -42.667 -1.83301 -80.5 -5.5 -113.5s-10.5 -65.5 -20.5 -97.5s-23.5 -58.333 -40.5 -79s-39.667 -37.334 -68 -50.001s-61.833 -19 -100.5 -19v60c31.333 0 58 5.33301 80 16s39.167 24.167 51.5 40.5s21.833 38.333 28.5 66s10.834 54.167 12.501 79.5
s2.5 56.666 2.5 93.999c0 24.667 -0.833008 65.834 -2.5 123.501s-2.5 102.167 -2.5 133.5c0 24.667 8 47.167 24 67.5s39.167 41.333 69.5 63s48.166 34.834 53.499 39.501c6.66699 6 10 10.667 10 14s-3.33301 8 -10 14c-5.33301 4.66699 -23.166 17.834 -53.499 39.501
s-53.5 42.667 -69.5 63s-24 42.833 -24 67.5c0 31.333 0.833008 75.833 2.5 133.5s2.5 98.834 2.5 123.501c0 37.333 -0.833008 68.666 -2.5 93.999s-5.83398 51.833 -12.501 79.5s-16.167 49.667 -28.5 66s-29.5 29.833 -51.5 40.5s-48.667 16 -80 16v60
c38.667 0 72.167 -6.33301 100.5 -19s51 -29.334 68 -50.001s30.5 -47 40.5 -79s16.833 -64.5 20.5 -97.5s5.5 -70.833 5.5 -113.5c0 -26 -0.833008 -67.333 -2.5 -124s-2.5 -100 -2.5 -130c0 -14 7.66699 -28.833 23 -44.5s35.5 -32.167 60.5 -49.5
s39.5 -27.666 43.5 -30.999c8 -7.33301 13.833 -12.833 17.5 -16.5s7.5 -9.5 11.5 -17.5s6 -16.333 6 -25z" />
    <glyph glyph-name="asciitilde" unicode="~" 
d="M131 630c0 95.333 21 171.166 63 227.499s100.667 84.5 176 84.5c46 0 88 -8.66699 126 -26s70.833 -38.333 98.5 -63l82.5 -74c27.333 -24.667 60 -45.667 98 -63s80 -26 126 -26c60 0 104.667 21.833 134 65.5s44 105.834 44 186.501h60
c0 -95.333 -21 -171.166 -63 -227.499s-100.333 -84.5 -175 -84.5c-51.333 0 -98 8.66699 -140 26s-77.333 38.333 -106 63l-83.5 74c-27 24.667 -57.5 45.667 -91.5 63s-70.667 26 -110 26c-60 0 -104.833 -21.833 -134.5 -65.5s-44.5 -105.834 -44.5 -186.501h-60z" />
    <glyph glyph-name="uni00A0" unicode="&#xa0;" 
 />
    <glyph glyph-name="exclamdown" unicode="&#xa1;" 
d="M687 -586h-60v1354h60v-1354zM716 1270h-140v138h140v-138z" />
    <glyph glyph-name="cent" unicode="&#xa2;" 
d="M605 1594h60v-586h474v-60h-474v-888h474v-60h-474v-586h-60v587c-132 7.33301 -244 59.5 -336 156.5s-138 212.5 -138 346.5s46 249.5 138 346.5s204 149.167 336 156.5v587zM605 947c-116 -7.33301 -214 -53.5 -294 -138.5s-120 -186.5 -120 -304.5
s40 -219.5 120 -304.5s178 -131.167 294 -138.5v886z" />
    <glyph glyph-name="sterling" unicode="&#xa3;" 
d="M600 1594c48.667 0 90.334 -17.333 125.001 -52s52 -76.334 52 -125.001h-60c0 32.667 -11.333 60.334 -34 83.001s-50.334 34 -83.001 34s-60.167 -11.333 -82.5 -34s-33.5 -50.334 -33.5 -83.001v-620v-151h655v-60h-655v-526h655v-60h-1008v60h293v526h-293v60h293
v151v620c0 48.667 17.167 90.334 51.5 125.001s75.833 52 124.5 52z" />
    <glyph glyph-name="currency" unicode="&#xa4;" 
d="M635 948c-123.333 0 -228.166 -43.333 -314.499 -130s-129.5 -191.334 -129.5 -314.001s43.167 -227.334 129.5 -314.001s191.166 -130 314.499 -130s228.166 43.333 314.499 130s129.5 191.334 129.5 314.001s-43.167 227.334 -129.5 314.001s-191.166 130 -314.499 130
zM954 114c-93.333 -76 -199.668 -114 -319.001 -114s-225.666 38 -318.999 114l-105 -114h-80l142 154c-94.667 98 -142 214.667 -142 350s47.333 252 142 350l-142 154h82l104 -113c92 75.333 198 113 318 113s226 -37.667 318 -113l104 113h82l-142 -154
c94.667 -98 142 -214.667 142 -350s-47.333 -252 -142 -350l142 -154h-81z" />
    <glyph glyph-name="yen" unicode="&#xa5;" 
d="M131 1594h70l434 -738l434 738h70l-474 -805v-143h474v-60h-474v-233h474v-60h-474v-293h-60v293h-474v60h474v233h-474v60h474v143z" />
    <glyph glyph-name="section" unicode="&#xa7;" 
d="M894 561c163.333 -39.333 245 -112.333 245 -219c0 -44.667 -11.333 -84.5 -34 -119.5s-51.5 -62.833 -86.5 -83.5s-75.667 -37.667 -122 -51s-90.666 -22.333 -132.999 -27s-85.166 -7 -128.499 -7c-40 0 -81 2.33301 -123 7s-86.333 13.334 -133 26.001
s-87.834 28.667 -123.501 48s-65.334 45.166 -89.001 77.499s-35.5 68.833 -35.5 109.5h60c0 -28 8.33301 -53.5 25 -76.5s39.167 -41.667 67.5 -56s58.5 -26.833 90.5 -37.5s65.5 -18.5 100.5 -23.5s65.333 -8.66699 91 -11s48.834 -3.5 69.501 -3.5
c36 0 71.833 1.66699 107.5 5s74.5 10.166 116.5 20.499s78.667 23.5 110 39.5s57.5 38 78.5 66s31.5 60.333 31.5 97c0 38 -16.667 70.333 -50 97s-76.166 45.834 -128.499 57.501s-99.833 19.834 -142.5 24.501s-83.667 7 -123 7c-30.667 0 -61.667 1.16699 -93 3.5
s-67.166 6.33301 -107.499 12s-77.5 14.5 -111.5 26.5s-66 26.667 -96 44s-53.5 39.666 -70.5 66.999s-25.5 58.333 -25.5 93c0 124 81.667 209 245 255c-163.333 39.333 -245 112.333 -245 219c0 44.667 11.333 84.5 34 119.5s51.5 62.833 86.5 83.5s75.667 37.667 122 51
s90.666 22.333 132.999 27s85.166 7 128.499 7c40 0 81 -2.33301 123 -7s86.333 -13.334 133 -26.001s87.834 -28.667 123.501 -48s65.334 -45.166 89.001 -77.499s35.5 -68.833 35.5 -109.5h-60c0 28 -8.33301 53.5 -25 76.5s-39.167 41.667 -67.5 56
s-58.5 26.833 -90.5 37.5s-65.5 18.5 -100.5 23.5s-65.333 8.66699 -91 11s-48.834 3.5 -69.501 3.5c-36 0 -71.833 -1.66699 -107.5 -5s-74.5 -10.166 -116.5 -20.499s-78.667 -23.5 -110 -39.5s-57.5 -38 -78.5 -66s-31.5 -60.333 -31.5 -97c0 -38 16.667 -70.333 50 -97
s76.166 -45.834 128.499 -57.501s99.833 -19.834 142.5 -24.501s83.667 -7 123 -7c30.667 0 61.667 -1.16699 93 -3.5s67.166 -6.33301 107.499 -12s77.5 -14.5 111.5 -26.5s66 -26.667 96 -44s53.5 -39.666 70.5 -66.999s25.5 -58.333 25.5 -93
c0 -124 -81.667 -209 -245 -255zM635 1002c-36 0 -71.833 -1.66699 -107.5 -5s-74.5 -10.166 -116.5 -20.499s-78.667 -23.5 -110 -39.5s-57.5 -38 -78.5 -66s-31.5 -60.333 -31.5 -97c0 -38 16.667 -70.333 50 -97s76.166 -45.834 128.499 -57.501
s99.833 -19.834 142.5 -24.501s83.667 -7 123 -7c36 0 71.833 1.66699 107.5 5s74.5 10.166 116.5 20.499s78.667 23.5 110 39.5s57.5 38 78.5 66s31.5 60.333 31.5 97c0 38 -16.667 70.333 -50 97s-76.166 45.834 -128.499 57.501s-99.833 19.834 -142.5 24.501
s-83.667 7 -123 7z" />
    <glyph glyph-name="dieresis" unicode="&#xa8;" 
d="M722 1376h140v-138h-140v138zM408 1376h140v-138h-140v138z" />
    <glyph glyph-name="copyright" unicode="&#xa9;" 
d="M635 1301c91.333 0 175.666 -22.5 252.999 -67.5s138.5 -106.167 183.5 -183.5s67.5 -161.666 67.5 -252.999s-22.5 -175.666 -67.5 -252.999s-106.167 -138.5 -183.5 -183.5s-161.666 -67.5 -252.999 -67.5s-175.666 22.5 -252.999 67.5s-138.5 106.167 -183.5 183.5
s-67.5 161.666 -67.5 252.999s22.5 175.666 67.5 252.999s106.167 138.5 183.5 183.5s161.666 67.5 252.999 67.5zM635 1241c-80.667 0 -155 -19.833 -223 -59.5s-121.833 -93.5 -161.5 -161.5s-59.5 -142.333 -59.5 -223s19.833 -155 59.5 -223s93.5 -121.833 161.5 -161.5
s142.333 -59.5 223 -59.5s155 19.833 223 59.5s121.833 93.5 161.5 161.5s59.5 142.333 59.5 223s-19.833 155 -59.5 223s-93.5 121.833 -161.5 161.5s-142.333 59.5 -223 59.5zM850 582c-59.333 -59.333 -131 -89 -215 -89c-83.333 0 -154.833 29.833 -214.5 89.5
s-89.5 131.167 -89.5 214.5s29.833 154.833 89.5 214.5s131.167 89.5 214.5 89.5c84 0 155.667 -29.667 215 -89l-42 -42c-48.667 47.333 -106.334 71 -173.001 71c-67.333 0 -124.833 -23.833 -172.5 -71.5s-71.5 -105.167 -71.5 -172.5s23.833 -124.833 71.5 -172.5
s105.167 -71.5 172.5 -71.5c66.667 0 124.334 23.667 173.001 71z" />
    <glyph glyph-name="guillemotleft" unicode="&#xab;" 
d="M1374 1334v-84l-453 -453l453 -453v-85l-538 538zM904 1334v-84l-453 -453l453 -453v-85l-538 538z" />
    <glyph glyph-name="registered" unicode="&#xae;" 
d="M635 1301c91.333 0 175.666 -22.5 252.999 -67.5s138.5 -106.167 183.5 -183.5s67.5 -161.666 67.5 -252.999s-22.5 -175.666 -67.5 -252.999s-106.167 -138.5 -183.5 -183.5s-161.666 -67.5 -252.999 -67.5s-175.666 22.5 -252.999 67.5s-138.5 106.167 -183.5 183.5
s-67.5 161.666 -67.5 252.999s22.5 175.666 67.5 252.999s106.167 138.5 183.5 183.5s161.666 67.5 252.999 67.5zM635 1241c-80.667 0 -155 -19.833 -223 -59.5s-121.833 -93.5 -161.5 -161.5s-59.5 -142.333 -59.5 -223s19.833 -155 59.5 -223s93.5 -121.833 161.5 -161.5
s142.333 -59.5 223 -59.5s155 19.833 223 59.5s121.833 93.5 161.5 161.5s59.5 142.333 59.5 223s-19.833 155 -59.5 223s-93.5 121.833 -161.5 161.5s-142.333 59.5 -223 59.5zM433 1090l196 -0.000976562c54.667 0 101.667 -19.833 141 -59.5s59 -87.167 59 -142.5
c0 -39.333 -10.5 -75.666 -31.5 -108.999s-48.5 -58 -82.5 -74l121 -201h-69l-112 184c-12 -1.33301 -20.667 -2 -26 -2h-136v-182h-60v586zM493 1029l-0.00195312 -282.001l136 -1c38.667 0 71.834 13.833 99.501 41.5s41.5 61.167 41.5 100.5
c0 38.667 -13.667 71.834 -41 99.501s-60.666 41.5 -99.999 41.5h-136z" />
    <glyph glyph-name="degree" unicode="&#xb0;" 
d="M474 1950c0 -44.667 16 -82.834 48 -114.501s70 -47.5 114 -47.5s81.667 15.833 113 47.5s47 69.834 47 114.501s-15.667 82.834 -47 114.501s-69 47.5 -113 47.5s-82 -15.833 -114 -47.5s-48 -69.834 -48 -114.501zM416 1950c0 61.333 21.5 113.666 64.5 156.999
s94.833 65 155.5 65c60 0 111.333 -21.667 154 -65s64 -95.666 64 -156.999s-21.333 -113.666 -64 -156.999s-94 -65 -154 -65c-60.667 0 -112.5 21.667 -155.5 65s-64.5 95.666 -64.5 156.999z" />
    <glyph glyph-name="plusminus" unicode="&#xb1;" 
d="M131 60h1008v-60h-1008v60zM665 646h474v-60h-474v-474h-60v474h-474v60h474v474h60v-474z" />
    <glyph glyph-name="uni00B5" unicode="&#xb5;" 
d="M131 504l0.00195312 504h60v-504c0 -122.667 43.167 -227.334 129.5 -314.001s191.166 -130 314.499 -130s228.166 43.333 314.499 130s129.5 191.334 129.5 314.001v504h60v-1008h-60v266c-43.333 -80.667 -104.5 -145.167 -183.5 -193.5s-165.833 -72.5 -260.5 -72.5
s-181.5 24.167 -260.5 72.5s-140.167 112.833 -183.5 193.5v-666h-60v904z" />
    <glyph glyph-name="paragraph" unicode="&#xb6;" 
d="M641 1534c-81.333 0 -156.666 -19.833 -225.999 -59.5s-124 -93.5 -164 -161.5s-60 -142.333 -60 -223s20 -155 60 -223s94.667 -121.833 164 -161.5s144.666 -59.5 225.999 -59.5h264v888h-264zM965 0l-60 0.00195312v586h-264c-92 0 -177.167 22.5 -255.5 67.5
s-140.333 106.167 -186 183.5s-68.5 161.666 -68.5 252.999s22.833 175.666 68.5 252.999s107.667 138.5 186 183.5s163.5 67.5 255.5 67.5h498v-1594h-60v1534h-114v-1534z" />
    <glyph glyph-name="cedilla" unicode="&#xb8;" 
d="M468 -275c0 -44.667 15.833 -82.8359 47.5 -114.503s69.5 -47.5 113.5 -47.5s81.667 15.833 113 47.5s47 69.834 47 114.501s-15.667 82.834 -47 114.501s-69 47.5 -113 47.5l-60 60v53h60v-53c60.667 0 112.334 -21.667 155.001 -65s64 -95.666 64 -156.999
s-21.333 -113.666 -64 -156.999s-94.334 -65 -155.001 -65s-112.5 21.667 -155.5 65s-64.5 95.666 -64.5 156.999h59z" />
    <glyph glyph-name="guillemotright" unicode="&#xbb;" 
d="M131 1059v84l453 453l-453 453v85l538 -538zM601 1059v84l453 453l-453 453v85l538 -538z" />
    <glyph glyph-name="questiondown" unicode="&#xbf;" 
d="M635 -586c-66 0 -129.665 12.8291 -190.998 38.4961s-115 60.834 -161 105.501s-82.833 99.834 -110.5 165.501s-41.5 136.167 -41.5 211.5c0 50 5.83301 95.5 17.5 136.5s26.167 74.667 43.5 101s39 51.833 65 76.5s50.833 45 74.5 61s50 34.833 79 56.5
s52.833 41.834 71.5 60.501c49.333 49.333 82.166 102.166 98.499 158.499s24.5 120.5 24.5 192.5h60c0 -80.667 -9.16699 -152 -27.5 -214s-57.166 -122.667 -116.499 -182c-21.333 -21.333 -49.166 -44.333 -83.499 -69l-90 -66.5
c-25.667 -19.667 -51.334 -43.334 -77.001 -71.001s-45.334 -61.167 -59.001 -100.5s-20.5 -84.666 -20.5 -135.999c0.666992 -137.333 44.167 -249.166 130.5 -335.499s190.833 -129.5 313.5 -129.5c121.333 0 225.666 43 312.999 129s131 191 131 315h60
c0 -92.667 -22.833 -177.667 -68.5 -255s-107.167 -138.166 -184.5 -182.499s-161 -66.5 -251 -66.5zM705.002 869.996h-140v138h140v-138z" />
    <glyph glyph-name="Agrave" unicode="&#xc0;" 
d="M785 1736h-110l-190 444h140zM606 1594h58l475 -1594h-63l-174 586h-534l-174 -586h-63zM635 1480l-249 -834h498z" />
    <glyph glyph-name="Aacute" unicode="&#xc1;" 
d="M485 1736l160 444h140l-190 -444h-110zM606 1594h58l475 -1594h-63l-174 586h-534l-174 -586h-63zM635 1480l-249 -834h498z" />
    <glyph glyph-name="Acircumflex" unicode="&#xc2;" 
d="M191 1736l444 444l444 -444h-84l-360 359l-359 -359h-85zM606 1594h58l475 -1594h-63l-174 586h-534l-174 -586h-63zM635 1480l-249 -834h498z" />
    <glyph glyph-name="Atilde" unicode="&#xc3;" 
d="M131 1734c0 95.333 21 171.166 63 227.499s100.667 84.5 176 84.5c46 0 88 -8.66699 126 -26s70.833 -38.333 98.5 -63l82.5 -74c27.333 -24.667 60 -45.667 98 -63s80 -26 126 -26c60 0 104.667 21.833 134 65.5s44 105.834 44 186.501h60
c0 -95.333 -21 -171.166 -63 -227.499s-100.333 -84.5 -175 -84.5c-51.333 0 -98 8.66699 -140 26s-77.333 38.333 -106 63l-83.5 74c-27 24.667 -57.5 45.667 -91.5 63s-70.667 26 -110 26c-60 0 -104.833 -21.833 -134.5 -65.5s-44.5 -105.834 -44.5 -186.501h-60z
M606 1594h58l475 -1594h-63l-174 586h-534l-174 -586h-63zM635 1480l-249 -834h498z" />
    <glyph glyph-name="Adieresis" unicode="&#xc4;" 
d="M722 1874h140v-138h-140v138zM408 1874h140v-138h-140v138zM606 1594h58l475 -1594h-63l-174 586h-534l-174 -586h-63zM635 1480l-249 -834h498z" />
    <glyph glyph-name="Aring" unicode="&#xc5;" 
d="M474 1958c0 -44.667 16 -82.834 48 -114.501s70 -47.5 114 -47.5s81.667 15.833 113 47.5s47 69.834 47 114.501s-15.667 82.834 -47 114.501s-69 47.5 -113 47.5s-82 -15.833 -114 -47.5s-48 -69.834 -48 -114.501zM416 1958c0 61.333 21.5 113.666 64.5 156.999
s94.833 65 155.5 65c60 0 111.333 -21.667 154 -65s64 -95.666 64 -156.999s-21.333 -113.666 -64 -156.999s-94 -65 -154 -65c-60.667 0 -112.5 21.667 -155.5 65s-64.5 95.666 -64.5 156.999zM606 1594h58l475 -1594h-63l-174 586h-534l-174 -586h-63zM635 1480l-249 -834
h498z" />
    <glyph glyph-name="AE" unicode="&#xc6;" 
d="M635 586h-267l-174 -586h-63l475 1594h533v-60h-444v-888h444v-60h-444v-526h444v-60h-504v586zM635 646v834l-249 -834h249z" />
    <glyph glyph-name="Ccedilla" unicode="&#xc7;" 
d="M759 -275c0 -44.667 15.833 -82.8359 47.5 -114.503s69.5 -47.5 113.5 -47.5s81.667 15.833 113 47.5s47 69.834 47 114.501s-15.667 82.834 -47 114.501s-69 47.5 -113 47.5l-60 60v53h60v-53c60.667 0 112.334 -21.667 155.001 -65s64 -95.666 64 -156.999
s-21.333 -113.666 -64 -156.999s-94.334 -65 -155.001 -65s-112.5 21.667 -155.5 65s-64.5 95.666 -64.5 156.999h59zM925 1594c71.333 0 142.667 -9.66699 214 -29v-62c-68 20.667 -138.333 31 -211 31c-108 0 -211.5 -22.667 -310.5 -68s-183.833 -110.333 -254.5 -195
c-114.667 -136.667 -172 -294.667 -172 -474s57.333 -337.333 172 -474c70.667 -84.667 155.5 -149.667 254.5 -195s202.5 -68 310.5 -68c72.667 0 143 10.333 211 31v-63c-68 -18.667 -138.333 -28 -211 -28c-116 0 -227.667 24.5 -335 73.5s-199.333 119.5 -276 211.5
c-61.333 72.667 -107.666 153 -138.999 241s-47 178.333 -47 271s15.667 183 47 271s77.666 168.333 138.999 241c76.667 91.333 168.167 161.5 274.5 210.5s217.5 73.833 333.5 74.5z" />
    <glyph glyph-name="Egrave" unicode="&#xc8;" 
d="M785 1736h-110l-190 444h140zM131 1594h1008v-60h-948v-888h948v-60h-948v-526h948v-60h-1008v1594z" />
    <glyph glyph-name="Eacute" unicode="&#xc9;" 
d="M485 1736l160 444h140l-190 -444h-110zM131 1594h1008v-60h-948v-888h948v-60h-948v-526h948v-60h-1008v1594z" />
    <glyph glyph-name="Ecircumflex" unicode="&#xca;" 
d="M191 1736l444 444l444 -444h-84l-360 359l-359 -359h-85zM131 1594h1008v-60h-948v-888h948v-60h-948v-526h948v-60h-1008v1594z" />
    <glyph glyph-name="Edieresis" unicode="&#xcb;" 
d="M722 1874h140v-138h-140v138zM408 1874h140v-138h-140v138zM131 1594h1008v-60h-948v-888h948v-60h-948v-526h948v-60h-1008v1594z" />
    <glyph glyph-name="Igrave" unicode="&#xcc;" 
d="M785 1736h-110l-190 444h140zM131 1594h1008v-60h-362v-1474h362v-60h-1008v60h586v1474h-586v60z" />
    <glyph glyph-name="Iacute" unicode="&#xcd;" 
d="M485 1736l160 444h140l-190 -444h-110zM131 1594h1008v-60h-362v-1474h362v-60h-1008v60h586v1474h-586v60z" />
    <glyph glyph-name="Icircumflex" unicode="&#xce;" 
d="M191 1736l444 444l444 -444h-84l-360 359l-359 -359h-85zM131 1594h1008v-60h-362v-1474h362v-60h-1008v60h586v1474h-586v60z" />
    <glyph glyph-name="Idieresis" unicode="&#xcf;" 
d="M722 1874h140v-138h-140v138zM408 1874h140v-138h-140v138zM131 1594h1008v-60h-362v-1474h362v-60h-1008v60h586v1474h-586v60z" />
    <glyph glyph-name="Ntilde" unicode="&#xd1;" 
d="M196 1594l883 -1485v1485h60v-1594h-65l-883 1485v-1485h-60v1594h65zM131 1734c0 95.333 21 171.166 63 227.499s100.667 84.5 176 84.5c46 0 88 -8.66699 126 -26s70.833 -38.333 98.5 -63l82.5 -74c27.333 -24.667 60 -45.667 98 -63s80 -26 126 -26
c60 0 104.667 21.833 134 65.5s44 105.834 44 186.501h60c0 -95.333 -21 -171.166 -63 -227.499s-100.333 -84.5 -175 -84.5c-51.333 0 -98 8.66699 -140 26s-77.333 38.333 -106 63l-83.5 74c-27 24.667 -57.5 45.667 -91.5 63s-70.667 26 -110 26
c-60 0 -104.833 -21.833 -134.5 -65.5s-44.5 -105.834 -44.5 -186.501h-60z" />
    <glyph glyph-name="Ograve" unicode="&#xd2;" 
d="M785 1736h-110l-190 444h140zM635 1594c139.333 0 258.166 -49.167 356.499 -147.5s147.5 -217.166 147.5 -356.499v-586c0 -139.333 -49.167 -258.166 -147.5 -356.499s-217.166 -147.5 -356.499 -147.5s-258.166 49.167 -356.499 147.5s-147.5 217.166 -147.5 356.499
v586c0 139.333 49.167 258.166 147.5 356.499s217.166 147.5 356.499 147.5zM635 1534c-123.333 0 -228.166 -43.333 -314.499 -130s-129.5 -191.334 -129.5 -314.001v-586c0 -122.667 43.167 -227.334 129.5 -314.001s191.166 -130 314.499 -130
s228.166 43.333 314.499 130s129.5 191.334 129.5 314.001v586c0 122.667 -43.167 227.334 -129.5 314.001s-191.166 130 -314.499 130z" />
    <glyph glyph-name="Oacute" unicode="&#xd3;" 
d="M485 1736l160 444h140l-190 -444h-110zM635 1594c139.333 0 258.166 -49.167 356.499 -147.5s147.5 -217.166 147.5 -356.499v-586c0 -139.333 -49.167 -258.166 -147.5 -356.499s-217.166 -147.5 -356.499 -147.5s-258.166 49.167 -356.499 147.5
s-147.5 217.166 -147.5 356.499v586c0 139.333 49.167 258.166 147.5 356.499s217.166 147.5 356.499 147.5zM635 1534c-123.333 0 -228.166 -43.333 -314.499 -130s-129.5 -191.334 -129.5 -314.001v-586c0 -122.667 43.167 -227.334 129.5 -314.001
s191.166 -130 314.499 -130s228.166 43.333 314.499 130s129.5 191.334 129.5 314.001v586c0 122.667 -43.167 227.334 -129.5 314.001s-191.166 130 -314.499 130z" />
    <glyph glyph-name="Ocircumflex" unicode="&#xd4;" 
d="M191 1736l444 444l444 -444h-84l-360 359l-359 -359h-85zM635 1594c139.333 0 258.166 -49.167 356.499 -147.5s147.5 -217.166 147.5 -356.499v-586c0 -139.333 -49.167 -258.166 -147.5 -356.499s-217.166 -147.5 -356.499 -147.5s-258.166 49.167 -356.499 147.5
s-147.5 217.166 -147.5 356.499v586c0 139.333 49.167 258.166 147.5 356.499s217.166 147.5 356.499 147.5zM635 1534c-123.333 0 -228.166 -43.333 -314.499 -130s-129.5 -191.334 -129.5 -314.001v-586c0 -122.667 43.167 -227.334 129.5 -314.001
s191.166 -130 314.499 -130s228.166 43.333 314.499 130s129.5 191.334 129.5 314.001v586c0 122.667 -43.167 227.334 -129.5 314.001s-191.166 130 -314.499 130z" />
    <glyph glyph-name="Otilde" unicode="&#xd5;" 
d="M131 1734c0 95.333 21 171.166 63 227.499s100.667 84.5 176 84.5c46 0 88 -8.66699 126 -26s70.833 -38.333 98.5 -63l82.5 -74c27.333 -24.667 60 -45.667 98 -63s80 -26 126 -26c60 0 104.667 21.833 134 65.5s44 105.834 44 186.501h60
c0 -95.333 -21 -171.166 -63 -227.499s-100.333 -84.5 -175 -84.5c-51.333 0 -98 8.66699 -140 26s-77.333 38.333 -106 63l-83.5 74c-27 24.667 -57.5 45.667 -91.5 63s-70.667 26 -110 26c-60 0 -104.833 -21.833 -134.5 -65.5s-44.5 -105.834 -44.5 -186.501h-60z
M635 1594c139.333 0 258.166 -49.167 356.499 -147.5s147.5 -217.166 147.5 -356.499v-586c0 -139.333 -49.167 -258.166 -147.5 -356.499s-217.166 -147.5 -356.499 -147.5s-258.166 49.167 -356.499 147.5s-147.5 217.166 -147.5 356.499v586
c0 139.333 49.167 258.166 147.5 356.499s217.166 147.5 356.499 147.5zM635 1534c-123.333 0 -228.166 -43.333 -314.499 -130s-129.5 -191.334 -129.5 -314.001v-586c0 -122.667 43.167 -227.334 129.5 -314.001s191.166 -130 314.499 -130s228.166 43.333 314.499 130
s129.5 191.334 129.5 314.001v586c0 122.667 -43.167 227.334 -129.5 314.001s-191.166 130 -314.499 130z" />
    <glyph glyph-name="Odieresis" unicode="&#xd6;" 
d="M722 1874h140v-138h-140v138zM408 1874h140v-138h-140v138zM635 1594c139.333 0 258.166 -49.167 356.499 -147.5s147.5 -217.166 147.5 -356.499v-586c0 -139.333 -49.167 -258.166 -147.5 -356.499s-217.166 -147.5 -356.499 -147.5s-258.166 49.167 -356.499 147.5
s-147.5 217.166 -147.5 356.499v586c0 139.333 49.167 258.166 147.5 356.499s217.166 147.5 356.499 147.5zM635 1534c-123.333 0 -228.166 -43.333 -314.499 -130s-129.5 -191.334 -129.5 -314.001v-586c0 -122.667 43.167 -227.334 129.5 -314.001
s191.166 -130 314.499 -130s228.166 43.333 314.499 130s129.5 191.334 129.5 314.001v586c0 122.667 -43.167 227.334 -129.5 314.001s-191.166 130 -314.499 130z" />
    <glyph glyph-name="multiply" unicode="&#xd7;" 
d="M142 1301h82l422 -460l422 460h82l-464 -504l464 -504h-81l-423 460l-424 -460h-80l463 504z" />
    <glyph glyph-name="Oslash" unicode="&#xd8;" 
d="M635 1534c-123.333 0 -228.167 -43.333 -314.5 -130s-129.5 -191.334 -129.5 -314.001v-586c0 -96 28 -182.667 84 -260l679 1155c-40.667 42.667 -88.5 75.834 -143.5 99.501s-113.5 35.5 -175.5 35.5zM994.999 1350l-678.999 -1155
c40.667 -42.667 88.5 -75.834 143.5 -99.501s113.5 -35.5 175.5 -35.5c123.333 0 228.166 43.333 314.499 130s129.5 191.334 129.5 314.001v586c0 96 -28 182.667 -84 260zM242 188c-74 92 -111 197.333 -111 316v586c0 139.333 49.167 258.166 147.5 356.499
s217.166 147.5 356.499 147.5c136 0 253 -47.333 351 -142l83 142h70l-111 -188c74 -92 111 -197.333 111 -316v-586c0 -139.333 -49.167 -258.166 -147.5 -356.499s-217.166 -147.5 -356.499 -147.5c-136 -0 -253 47.333 -351 142l-83 -142h-70z" />
    <glyph glyph-name="Ugrave" unicode="&#xd9;" 
d="M785 1736h-110l-190 444h140zM191 504c0 -78 19.002 -151 57.002 -219s91.167 -122.5 159.5 -163.5s144.166 -61.5 227.499 -61.5s159.166 20.5 227.499 61.5s121.5 95.5 159.5 163.5s57 141 57 219v1090h60v-1090c0 -140 -49.5 -259 -148.5 -357
s-217.5 -147 -355.5 -147s-256.5 49 -355.5 147s-148.5 217 -148.5 357v1090h60v-1090z" />
    <glyph glyph-name="Uacute" unicode="&#xda;" 
d="M485 1736l160 444h140l-190 -444h-110zM191 504c0 -78 19.002 -151 57.002 -219s91.167 -122.5 159.5 -163.5s144.166 -61.5 227.499 -61.5s159.166 20.5 227.499 61.5s121.5 95.5 159.5 163.5s57 141 57 219v1090h60v-1090c0 -140 -49.5 -259 -148.5 -357
s-217.5 -147 -355.5 -147s-256.5 49 -355.5 147s-148.5 217 -148.5 357v1090h60v-1090z" />
    <glyph glyph-name="Ucircumflex" unicode="&#xdb;" 
d="M191 1736l444 444l444 -444h-84l-360 359l-359 -359h-85zM191 504c0 -78 19.002 -151 57.002 -219s91.167 -122.5 159.5 -163.5s144.166 -61.5 227.499 -61.5s159.166 20.5 227.499 61.5s121.5 95.5 159.5 163.5s57 141 57 219v1090h60v-1090
c0 -140 -49.5 -259 -148.5 -357s-217.5 -147 -355.5 -147s-256.5 49 -355.5 147s-148.5 217 -148.5 357v1090h60v-1090z" />
    <glyph glyph-name="Udieresis" unicode="&#xdc;" 
d="M722 1874h140v-138h-140v138zM408 1874h140v-138h-140v138zM191 504c0 -78 19.002 -151 57.002 -219s91.167 -122.5 159.5 -163.5s144.166 -61.5 227.499 -61.5s159.166 20.5 227.499 61.5s121.5 95.5 159.5 163.5s57 141 57 219v1090h60v-1090
c0 -140 -49.5 -259 -148.5 -357s-217.5 -147 -355.5 -147s-256.5 49 -355.5 147s-148.5 217 -148.5 357v1090h60v-1090z" />
    <glyph glyph-name="Yacute" unicode="&#xdd;" 
d="M485 1736l160 444h140l-190 -444h-110zM131 1594h70l434 -738l434 738h70l-474 -805v-789h-60v789z" />
    <glyph glyph-name="germandbls" unicode="&#xdf;" 
d="M484 60v-60h-353v60h181v1211c0 89.333 31 165.5 93 228.5s136.667 94.5 224 94.5s162 -31.5 224 -94.5s93 -139.167 93 -228.5c0 -60.667 -15.5 -116.5 -46.5 -167.5s-72.167 -90.167 -123.5 -117.5c106 -31.333 193 -91.333 261 -180s102 -189.334 102 -302.001
c0 -91.333 -22.833 -175.666 -68.5 -252.999s-107.667 -138.5 -186 -183.5s-163.5 -67.5 -255.5 -67.5v60c81.333 0 156.666 19.833 225.999 59.5s124 93.5 164 161.5s60 142.333 60 223s-20 155 -60 223s-94.667 121.833 -164 161.5s-144.666 59.5 -225.999 59.5v60
c71.333 0 132 25.667 182 77s75 113.333 75 186s-25 134.667 -75 186s-110.667 77 -182 77s-132 -25.667 -182 -77s-75 -113.333 -75 -186v-1211h112z" />
    <glyph glyph-name="agrave" unicode="&#xe0;" 
d="M785 1150h-110l-190 444h140zM635 1008c94.667 0 181.5 -24.165 260.5 -72.498s140.167 -112.833 183.5 -193.5v266h60v-504v-504h-60v266c-43.333 -80.667 -104.5 -145.167 -183.5 -193.5s-165.833 -72.5 -260.5 -72.5c-91.333 0 -175.666 22.5 -252.999 67.5
s-138.5 106.167 -183.5 183.5s-67.5 161.666 -67.5 252.999s22.5 175.666 67.5 252.999s106.167 138.5 183.5 183.5s161.666 67.5 252.999 67.5zM635 948.002c-123.333 0 -228.166 -43.333 -314.499 -130s-129.5 -191.334 -129.5 -314.001s43.167 -227.334 129.5 -314.001
s191.166 -130 314.499 -130s228.166 43.333 314.499 130s129.5 191.334 129.5 314.001s-43.167 227.334 -129.5 314.001s-191.166 130 -314.499 130z" />
    <glyph glyph-name="aacute" unicode="&#xe1;" 
d="M485 1150l160 444h140l-190 -444h-110zM635 1008c94.667 0 181.5 -24.165 260.5 -72.498s140.167 -112.833 183.5 -193.5v266h60v-504v-504h-60v266c-43.333 -80.667 -104.5 -145.167 -183.5 -193.5s-165.833 -72.5 -260.5 -72.5c-91.333 0 -175.666 22.5 -252.999 67.5
s-138.5 106.167 -183.5 183.5s-67.5 161.666 -67.5 252.999s22.5 175.666 67.5 252.999s106.167 138.5 183.5 183.5s161.666 67.5 252.999 67.5zM635 948.002c-123.333 0 -228.166 -43.333 -314.499 -130s-129.5 -191.334 -129.5 -314.001s43.167 -227.334 129.5 -314.001
s191.166 -130 314.499 -130s228.166 43.333 314.499 130s129.5 191.334 129.5 314.001s-43.167 227.334 -129.5 314.001s-191.166 130 -314.499 130z" />
    <glyph glyph-name="acircumflex" unicode="&#xe2;" 
d="M191 1150l444 444l444 -444h-84l-360 359l-359 -359h-85zM635 1008c94.667 0 181.5 -24.165 260.5 -72.498s140.167 -112.833 183.5 -193.5v266h60v-504v-504h-60v266c-43.333 -80.667 -104.5 -145.167 -183.5 -193.5s-165.833 -72.5 -260.5 -72.5
c-91.333 0 -175.666 22.5 -252.999 67.5s-138.5 106.167 -183.5 183.5s-67.5 161.666 -67.5 252.999s22.5 175.666 67.5 252.999s106.167 138.5 183.5 183.5s161.666 67.5 252.999 67.5zM635 948.002c-123.333 0 -228.166 -43.333 -314.499 -130
s-129.5 -191.334 -129.5 -314.001s43.167 -227.334 129.5 -314.001s191.166 -130 314.499 -130s228.166 43.333 314.499 130s129.5 191.334 129.5 314.001s-43.167 227.334 -129.5 314.001s-191.166 130 -314.499 130z" />
    <glyph glyph-name="atilde" unicode="&#xe3;" 
d="M131 1150c0 95.333 21 171.166 63 227.499s100.667 84.5 176 84.5c46 0 88 -8.66699 126 -26s70.833 -38.333 98.5 -63l82.5 -74c27.333 -24.667 60 -45.667 98 -63s80 -26 126 -26c60 0 104.667 21.833 134 65.5s44 105.834 44 186.501h60
c0 -95.333 -21 -171.166 -63 -227.499s-100.333 -84.5 -175 -84.5c-51.333 0 -98 8.66699 -140 26s-77.333 38.333 -106 63l-83.5 74c-27 24.667 -57.5 45.667 -91.5 63s-70.667 26 -110 26c-60 0 -104.833 -21.833 -134.5 -65.5s-44.5 -105.834 -44.5 -186.501h-60z
M635 1008c94.667 0 181.5 -24.165 260.5 -72.498s140.167 -112.833 183.5 -193.5v266h60v-504v-504h-60v266c-43.333 -80.667 -104.5 -145.167 -183.5 -193.5s-165.833 -72.5 -260.5 -72.5c-91.333 0 -175.666 22.5 -252.999 67.5s-138.5 106.167 -183.5 183.5
s-67.5 161.666 -67.5 252.999s22.5 175.666 67.5 252.999s106.167 138.5 183.5 183.5s161.666 67.5 252.999 67.5zM635 948.002c-123.333 0 -228.166 -43.333 -314.499 -130s-129.5 -191.334 -129.5 -314.001s43.167 -227.334 129.5 -314.001s191.166 -130 314.499 -130
s228.166 43.333 314.499 130s129.5 191.334 129.5 314.001s-43.167 227.334 -129.5 314.001s-191.166 130 -314.499 130z" />
    <glyph glyph-name="adieresis" unicode="&#xe4;" 
d="M722 1288h140v-138h-140v138zM408 1288h140v-138h-140v138zM635 1008c94.667 0 181.5 -24.165 260.5 -72.498s140.167 -112.833 183.5 -193.5v266h60v-504v-504h-60v266c-43.333 -80.667 -104.5 -145.167 -183.5 -193.5s-165.833 -72.5 -260.5 -72.5
c-91.333 0 -175.666 22.5 -252.999 67.5s-138.5 106.167 -183.5 183.5s-67.5 161.666 -67.5 252.999s22.5 175.666 67.5 252.999s106.167 138.5 183.5 183.5s161.666 67.5 252.999 67.5zM635 948.002c-123.333 0 -228.166 -43.333 -314.499 -130
s-129.5 -191.334 -129.5 -314.001s43.167 -227.334 129.5 -314.001s191.166 -130 314.499 -130s228.166 43.333 314.499 130s129.5 191.334 129.5 314.001s-43.167 227.334 -129.5 314.001s-191.166 130 -314.499 130z" />
    <glyph glyph-name="aring" unicode="&#xe5;" 
d="M474 1372c0 -44.667 16 -82.834 48 -114.501s70 -47.5 114 -47.5s81.667 15.833 113 47.5s47 69.834 47 114.501s-15.667 82.834 -47 114.501s-69 47.5 -113 47.5s-82 -15.833 -114 -47.5s-48 -69.834 -48 -114.501zM416 1372c0 61.333 21.5 113.666 64.5 156.999
s94.833 65 155.5 65c60 0 111.333 -21.667 154 -65s64 -95.666 64 -156.999s-21.333 -113.666 -64 -156.999s-94 -65 -154 -65c-60.667 0 -112.5 21.667 -155.5 65s-64.5 95.666 -64.5 156.999zM635 1008c94.667 0 181.5 -24.165 260.5 -72.498
s140.167 -112.833 183.5 -193.5v266h60v-504v-504h-60v266c-43.333 -80.667 -104.5 -145.167 -183.5 -193.5s-165.833 -72.5 -260.5 -72.5c-91.333 0 -175.666 22.5 -252.999 67.5s-138.5 106.167 -183.5 183.5s-67.5 161.666 -67.5 252.999s22.5 175.666 67.5 252.999
s106.167 138.5 183.5 183.5s161.666 67.5 252.999 67.5zM635 948.002c-123.333 0 -228.166 -43.333 -314.499 -130s-129.5 -191.334 -129.5 -314.001s43.167 -227.334 129.5 -314.001s191.166 -130 314.499 -130s228.166 43.333 314.499 130s129.5 191.334 129.5 314.001
s-43.167 227.334 -129.5 314.001s-191.166 130 -314.499 130z" />
    <glyph glyph-name="ae" unicode="&#xe6;" 
d="M605 1008h60.002v-99c25.333 30.667 56 54.834 92 72.501s74.333 26.5 115 26.5c73.333 0 136.166 -26.167 188.499 -78.5s78.5 -115.166 78.5 -188.499v-155h-474v-319c0 -56.667 20.167 -105.334 60.5 -146.001s89.166 -61 146.499 -61s106.166 20.333 146.499 61
s60.5 89.334 60.5 146.001h60c0 -73.333 -26.167 -136.166 -78.5 -188.499s-115.166 -78.5 -188.499 -78.5c-40.667 0 -79 8.83301 -115 26.5s-66.667 41.834 -92 72.501v-99h-60v99c-25.333 -30.667 -56 -54.834 -92 -72.501s-74.333 -26.5 -115 -26.5
c-73.333 0 -136.166 26.167 -188.499 78.5s-78.5 115.166 -78.5 188.499v474c0 73.333 26.167 136.166 78.5 188.499s115.166 78.5 188.499 78.5c40.667 0 79 -8.83301 115 -26.5s66.667 -41.834 92 -72.501v99zM665.002 741l-0.00195312 -95h414v95
c0 56.667 -20.167 105.334 -60.5 146.001s-89.166 61 -146.499 61s-106.166 -20.333 -146.499 -61s-60.5 -89.334 -60.5 -146.001zM605 741c0 56.667 -20.167 105.334 -60.5 146.001s-89.166 61 -146.499 61s-106.166 -20.333 -146.499 -61s-60.5 -89.334 -60.5 -146.001
v-474c0 -56.667 20.167 -105.334 60.5 -146.001s89.166 -61 146.499 -61s106.166 20.333 146.499 61s60.5 89.334 60.5 146.001v474z" />
    <glyph glyph-name="ccedilla" unicode="&#xe7;" 
d="M559 -276c0 -44.667 15.833 -82.8359 47.5 -114.503s69.5 -47.5 113.5 -47.5s81.667 15.833 113 47.5s47 69.834 47 114.501s-15.667 82.834 -47 114.501s-69 47.5 -113 47.5l-60 60v53h60v-53c60.667 0 112.334 -21.667 155.001 -65s64 -95.666 64 -156.999
s-21.333 -113.666 -64 -156.999s-94.334 -65 -155.001 -65s-112.5 21.667 -155.5 65s-64.5 95.666 -64.5 156.999h59zM1139 -0.00195312l-504 0.00390625c-91.333 0 -175.666 22.5 -252.999 67.5s-138.5 106.167 -183.5 183.5s-67.5 161.666 -67.5 252.999
s22.5 175.666 67.5 252.999s106.167 138.5 183.5 183.5s161.666 67.5 252.999 67.5h504v-60h-504c-123.333 0 -228.166 -43.333 -314.499 -130s-129.5 -191.334 -129.5 -314.001s43.167 -227.334 129.5 -314.001s191.166 -130 314.499 -130h504v-60z" />
    <glyph glyph-name="egrave" unicode="&#xe8;" 
d="M785 1150h-110l-190 444h140zM879 474h-687c7.33301 -116 53.5 -214 138.5 -294s186.5 -120 304.5 -120h504v-60h-504c-91.333 0 -175.666 22.5 -252.999 67.5s-138.5 106.167 -183.5 183.5s-67.5 161.666 -67.5 252.999s22.5 175.666 67.5 252.999
s106.167 138.5 183.5 183.5s161.666 67.5 252.999 67.5h244c72 0 133.333 -26.167 184 -78.5s76 -115.166 76 -188.499s-25.333 -136.166 -76 -188.499s-112 -78.5 -184 -78.5zM192 534l687 0.00195312c55.333 0 102.5 20.167 141.5 60.5s58.5 89.166 58.5 146.499
s-19.5 106.166 -58.5 146.499s-86.167 60.5 -141.5 60.5h-244c-118 0 -219.5 -40 -304.5 -120s-131.167 -178 -138.5 -294z" />
    <glyph glyph-name="eacute" unicode="&#xe9;" 
d="M485 1150l160 444h140l-190 -444h-110zM879 474h-687c7.33301 -116 53.5 -214 138.5 -294s186.5 -120 304.5 -120h504v-60h-504c-91.333 0 -175.666 22.5 -252.999 67.5s-138.5 106.167 -183.5 183.5s-67.5 161.666 -67.5 252.999s22.5 175.666 67.5 252.999
s106.167 138.5 183.5 183.5s161.666 67.5 252.999 67.5h244c72 0 133.333 -26.167 184 -78.5s76 -115.166 76 -188.499s-25.333 -136.166 -76 -188.499s-112 -78.5 -184 -78.5zM192 534l687 0.00195312c55.333 0 102.5 20.167 141.5 60.5s58.5 89.166 58.5 146.499
s-19.5 106.166 -58.5 146.499s-86.167 60.5 -141.5 60.5h-244c-118 0 -219.5 -40 -304.5 -120s-131.167 -178 -138.5 -294z" />
    <glyph glyph-name="ecircumflex" unicode="&#xea;" 
d="M191 1150l444 444l444 -444h-84l-360 359l-359 -359h-85zM879 474h-687c7.33301 -116 53.5 -214 138.5 -294s186.5 -120 304.5 -120h504v-60h-504c-91.333 0 -175.666 22.5 -252.999 67.5s-138.5 106.167 -183.5 183.5s-67.5 161.666 -67.5 252.999
s22.5 175.666 67.5 252.999s106.167 138.5 183.5 183.5s161.666 67.5 252.999 67.5h244c72 0 133.333 -26.167 184 -78.5s76 -115.166 76 -188.499s-25.333 -136.166 -76 -188.499s-112 -78.5 -184 -78.5zM192 534l687 0.00195312c55.333 0 102.5 20.167 141.5 60.5
s58.5 89.166 58.5 146.499s-19.5 106.166 -58.5 146.499s-86.167 60.5 -141.5 60.5h-244c-118 0 -219.5 -40 -304.5 -120s-131.167 -178 -138.5 -294z" />
    <glyph glyph-name="edieresis" unicode="&#xeb;" 
d="M722 1288h140v-138h-140v138zM408 1288h140v-138h-140v138zM879 474h-687c7.33301 -116 53.5 -214 138.5 -294s186.5 -120 304.5 -120h504v-60h-504c-91.333 0 -175.666 22.5 -252.999 67.5s-138.5 106.167 -183.5 183.5s-67.5 161.666 -67.5 252.999
s22.5 175.666 67.5 252.999s106.167 138.5 183.5 183.5s161.666 67.5 252.999 67.5h244c72 0 133.333 -26.167 184 -78.5s76 -115.166 76 -188.499s-25.333 -136.166 -76 -188.499s-112 -78.5 -184 -78.5zM192 534l687 0.00195312c55.333 0 102.5 20.167 141.5 60.5
s58.5 89.166 58.5 146.499s-19.5 106.166 -58.5 146.499s-86.167 60.5 -141.5 60.5h-244c-118 0 -219.5 -40 -304.5 -120s-131.167 -178 -138.5 -294z" />
    <glyph glyph-name="igrave" unicode="&#xec;" 
d="M785 1150h-110l-190 444h140zM665 60h474v-60h-1008v60h474v888h-474v60h1008v-60h-474v-888z" />
    <glyph glyph-name="iacute" unicode="&#xed;" 
d="M485 1150l160 444h140l-190 -444h-110zM665 60h474v-60h-1008v60h474v888h-474v60h1008v-60h-474v-888z" />
    <glyph glyph-name="icircumflex" unicode="&#xee;" 
d="M191 1150l444 444l444 -444h-84l-360 359l-359 -359h-85zM665 60h474v-60h-1008v60h474v888h-474v60h1008v-60h-474v-888z" />
    <glyph glyph-name="idieresis" unicode="&#xef;" 
d="M722 1288h140v-138h-140v138zM408 1288h140v-138h-140v138zM665 60h474v-60h-1008v60h474v888h-474v60h1008v-60h-474v-888z" />
    <glyph glyph-name="ntilde" unicode="&#xf1;" 
d="M131 1150c0 95.333 21 171.166 63 227.499s100.667 84.5 176 84.5c46 0 88 -8.66699 126 -26s70.833 -38.333 98.5 -63l82.5 -74c27.333 -24.667 60 -45.667 98 -63s80 -26 126 -26c60 0 104.667 21.833 134 65.5s44 105.834 44 186.501h60
c0 -95.333 -21 -171.166 -63 -227.499s-100.333 -84.5 -175 -84.5c-51.333 0 -98 8.66699 -140 26s-77.333 38.333 -106 63l-83.5 74c-27 24.667 -57.5 45.667 -91.5 63s-70.667 26 -110 26c-60 0 -104.833 -21.833 -134.5 -65.5s-44.5 -105.834 -44.5 -186.501h-60z
M635 1008c91.333 0 175.665 -22.501 252.998 -67.501s138.5 -106.167 183.5 -183.5s67.5 -161.666 67.5 -252.999v-504h-60v504c0 122.667 -43.167 227.334 -129.5 314.001s-191.166 130 -314.499 130s-228.166 -43.333 -314.499 -130s-129.5 -191.334 -129.5 -314.001v-504
h-60v1008h60v-266c43.333 80.667 104.5 145.167 183.5 193.5s165.833 72.5 260.5 72.5z" />
    <glyph glyph-name="ograve" unicode="&#xf2;" 
d="M785 1150h-110l-190 444h140zM635 1008c91.333 0 175.666 -22.5 252.999 -67.5s138.5 -106.167 183.5 -183.5s67.5 -161.666 67.5 -252.999s-22.5 -175.666 -67.5 -252.999s-106.167 -138.5 -183.5 -183.5s-161.666 -67.5 -252.999 -67.5s-175.666 22.5 -252.999 67.5
s-138.5 106.167 -183.5 183.5s-67.5 161.666 -67.5 252.999s22.5 175.666 67.5 252.999s106.167 138.5 183.5 183.5s161.666 67.5 252.999 67.5zM635 948c-123.333 0 -228.166 -43.333 -314.499 -130s-129.5 -191.334 -129.5 -314.001s43.167 -227.334 129.5 -314.001
s191.166 -130 314.499 -130s228.166 43.333 314.499 130s129.5 191.334 129.5 314.001s-43.167 227.334 -129.5 314.001s-191.166 130 -314.499 130z" />
    <glyph glyph-name="oacute" unicode="&#xf3;" 
d="M485 1150l160 444h140l-190 -444h-110zM635 1008c91.333 0 175.666 -22.5 252.999 -67.5s138.5 -106.167 183.5 -183.5s67.5 -161.666 67.5 -252.999s-22.5 -175.666 -67.5 -252.999s-106.167 -138.5 -183.5 -183.5s-161.666 -67.5 -252.999 -67.5
s-175.666 22.5 -252.999 67.5s-138.5 106.167 -183.5 183.5s-67.5 161.666 -67.5 252.999s22.5 175.666 67.5 252.999s106.167 138.5 183.5 183.5s161.666 67.5 252.999 67.5zM635 948c-123.333 0 -228.166 -43.333 -314.499 -130s-129.5 -191.334 -129.5 -314.001
s43.167 -227.334 129.5 -314.001s191.166 -130 314.499 -130s228.166 43.333 314.499 130s129.5 191.334 129.5 314.001s-43.167 227.334 -129.5 314.001s-191.166 130 -314.499 130z" />
    <glyph glyph-name="ocircumflex" unicode="&#xf4;" 
d="M191 1150l444 444l444 -444h-84l-360 359l-359 -359h-85zM635 1008c91.333 0 175.666 -22.5 252.999 -67.5s138.5 -106.167 183.5 -183.5s67.5 -161.666 67.5 -252.999s-22.5 -175.666 -67.5 -252.999s-106.167 -138.5 -183.5 -183.5s-161.666 -67.5 -252.999 -67.5
s-175.666 22.5 -252.999 67.5s-138.5 106.167 -183.5 183.5s-67.5 161.666 -67.5 252.999s22.5 175.666 67.5 252.999s106.167 138.5 183.5 183.5s161.666 67.5 252.999 67.5zM635 948c-123.333 0 -228.166 -43.333 -314.499 -130s-129.5 -191.334 -129.5 -314.001
s43.167 -227.334 129.5 -314.001s191.166 -130 314.499 -130s228.166 43.333 314.499 130s129.5 191.334 129.5 314.001s-43.167 227.334 -129.5 314.001s-191.166 130 -314.499 130z" />
    <glyph glyph-name="otilde" unicode="&#xf5;" 
d="M131 1150c0 95.333 21 171.166 63 227.499s100.667 84.5 176 84.5c46 0 88 -8.66699 126 -26s70.833 -38.333 98.5 -63l82.5 -74c27.333 -24.667 60 -45.667 98 -63s80 -26 126 -26c60 0 104.667 21.833 134 65.5s44 105.834 44 186.501h60
c0 -95.333 -21 -171.166 -63 -227.499s-100.333 -84.5 -175 -84.5c-51.333 0 -98 8.66699 -140 26s-77.333 38.333 -106 63l-83.5 74c-27 24.667 -57.5 45.667 -91.5 63s-70.667 26 -110 26c-60 0 -104.833 -21.833 -134.5 -65.5s-44.5 -105.834 -44.5 -186.501h-60z
M635 1008c91.333 0 175.666 -22.5 252.999 -67.5s138.5 -106.167 183.5 -183.5s67.5 -161.666 67.5 -252.999s-22.5 -175.666 -67.5 -252.999s-106.167 -138.5 -183.5 -183.5s-161.666 -67.5 -252.999 -67.5s-175.666 22.5 -252.999 67.5s-138.5 106.167 -183.5 183.5
s-67.5 161.666 -67.5 252.999s22.5 175.666 67.5 252.999s106.167 138.5 183.5 183.5s161.666 67.5 252.999 67.5zM635 948c-123.333 0 -228.166 -43.333 -314.499 -130s-129.5 -191.334 -129.5 -314.001s43.167 -227.334 129.5 -314.001s191.166 -130 314.499 -130
s228.166 43.333 314.499 130s129.5 191.334 129.5 314.001s-43.167 227.334 -129.5 314.001s-191.166 130 -314.499 130z" />
    <glyph glyph-name="odieresis" unicode="&#xf6;" 
d="M722 1288h140v-138h-140v138zM408 1288h140v-138h-140v138zM635 1008c91.333 0 175.666 -22.5 252.999 -67.5s138.5 -106.167 183.5 -183.5s67.5 -161.666 67.5 -252.999s-22.5 -175.666 -67.5 -252.999s-106.167 -138.5 -183.5 -183.5s-161.666 -67.5 -252.999 -67.5
s-175.666 22.5 -252.999 67.5s-138.5 106.167 -183.5 183.5s-67.5 161.666 -67.5 252.999s22.5 175.666 67.5 252.999s106.167 138.5 183.5 183.5s161.666 67.5 252.999 67.5zM635 948c-123.333 0 -228.166 -43.333 -314.499 -130s-129.5 -191.334 -129.5 -314.001
s43.167 -227.334 129.5 -314.001s191.166 -130 314.499 -130s228.166 43.333 314.499 130s129.5 191.334 129.5 314.001s-43.167 227.334 -129.5 314.001s-191.166 130 -314.499 130z" />
    <glyph glyph-name="divide" unicode="&#xf7;" 
d="M565 360h140v-138h-140v138zM131 646h1008v-60h-1008v60zM565 1010h140v-138h-140v138z" />
    <glyph glyph-name="ugrave" unicode="&#xf9;" 
d="M785 1150h-110l-190 444h140zM635 0c-91.333 0 -175.665 22.501 -252.998 67.501s-138.5 106.167 -183.5 183.5s-67.5 161.666 -67.5 252.999v504h60v-504c0 -122.667 43.167 -227.334 129.5 -314.001s191.166 -130 314.499 -130s228.166 43.333 314.499 130
s129.5 191.334 129.5 314.001v504h60v-1008h-60v266c-43.333 -80.667 -104.5 -145.167 -183.5 -193.5s-165.833 -72.5 -260.5 -72.5z" />
    <glyph glyph-name="uacute" unicode="&#xfa;" 
d="M485 1150l160 444h140l-190 -444h-110zM635 0c-91.333 0 -175.665 22.501 -252.998 67.501s-138.5 106.167 -183.5 183.5s-67.5 161.666 -67.5 252.999v504h60v-504c0 -122.667 43.167 -227.334 129.5 -314.001s191.166 -130 314.499 -130s228.166 43.333 314.499 130
s129.5 191.334 129.5 314.001v504h60v-1008h-60v266c-43.333 -80.667 -104.5 -145.167 -183.5 -193.5s-165.833 -72.5 -260.5 -72.5z" />
    <glyph glyph-name="ucircumflex" unicode="&#xfb;" 
d="M191 1150l444 444l444 -444h-84l-360 359l-359 -359h-85zM635 0c-91.333 0 -175.665 22.501 -252.998 67.501s-138.5 106.167 -183.5 183.5s-67.5 161.666 -67.5 252.999v504h60v-504c0 -122.667 43.167 -227.334 129.5 -314.001s191.166 -130 314.499 -130
s228.166 43.333 314.499 130s129.5 191.334 129.5 314.001v504h60v-1008h-60v266c-43.333 -80.667 -104.5 -145.167 -183.5 -193.5s-165.833 -72.5 -260.5 -72.5z" />
    <glyph glyph-name="udieresis" unicode="&#xfc;" 
d="M722 1288h140v-138h-140v138zM408 1288h140v-138h-140v138zM635 0c-91.333 0 -175.665 22.501 -252.998 67.501s-138.5 106.167 -183.5 183.5s-67.5 161.666 -67.5 252.999v504h60v-504c0 -122.667 43.167 -227.334 129.5 -314.001s191.166 -130 314.499 -130
s228.166 43.333 314.499 130s129.5 191.334 129.5 314.001v504h60v-1008h-60v266c-43.333 -80.667 -104.5 -145.167 -183.5 -193.5s-165.833 -72.5 -260.5 -72.5z" />
    <glyph glyph-name="yacute" unicode="&#xfd;" 
d="M485 1150l160 444h140l-190 -444h-110zM1079 -82l0.000976562 348.001c-43.333 -80.667 -104.5 -145.167 -183.5 -193.5s-165.833 -72.5 -260.5 -72.5c-91.333 0 -175.666 22.5 -252.999 67.5s-138.5 106.167 -183.5 183.5s-67.5 161.666 -67.5 252.999v504h60v-504
c0 -122.667 43.167 -227.334 129.5 -314.001s191.166 -130 314.499 -130s228.166 43.333 314.499 130s129.5 191.334 129.5 314.001v504h60v-1090c0 -91.333 -22.5 -175.666 -67.5 -252.999s-106.167 -138.5 -183.5 -183.5s-161.666 -67.5 -252.999 -67.5
s-175.666 22.5 -252.999 67.5s-138.5 106.167 -183.5 183.5s-67.5 161.666 -67.5 252.999h60c0 -122.667 43.167 -227.334 129.5 -314.001s191.166 -130 314.499 -130s228.166 43.333 314.499 130s129.5 191.334 129.5 314.001z" />
    <glyph glyph-name="dotlessi" unicode="&#x131;" 
d="M665 60h474v-60h-1008v60h474v888h-474v60h1008v-60h-474v-888z" />
    <glyph glyph-name="OE" unicode="&#x152;" 
d="M635 60v1474c-123.333 0 -228.166 -43.333 -314.499 -130s-129.5 -191.334 -129.5 -314.001v-586c0 -122.667 43.167 -227.334 129.5 -314.001s191.166 -130 314.499 -130zM635 0.00195312c-139.333 0 -258.166 49.1689 -356.499 147.502s-147.5 217.166 -147.5 356.499
v586c0 139.333 49.167 258.166 147.5 356.499s217.166 147.5 356.499 147.5h504v-60h-444v-888h444v-60h-444v-526h444v-60h-504z" />
    <glyph glyph-name="oe" unicode="&#x153;" 
d="M1079 267h60.002c0 -73.333 -26.167 -136.166 -78.5 -188.499s-115.166 -78.5 -188.499 -78.5c-50.667 0 -97.167 13.167 -139.5 39.5s-74.833 61.166 -97.5 104.499c-22.667 -43.333 -55.167 -78.166 -97.5 -104.499s-88.833 -39.5 -139.5 -39.5
c-73.333 0 -136.166 26.167 -188.499 78.5s-78.5 115.166 -78.5 188.499v474c0 73.333 26.167 136.166 78.5 188.499s115.166 78.5 188.499 78.5c50.667 0 97.167 -13.167 139.5 -39.5s74.833 -61.166 97.5 -104.499c22.667 43.333 55.167 78.166 97.5 104.499
s88.833 39.5 139.5 39.5c73.333 0 136.166 -26.167 188.499 -78.5s78.5 -115.166 78.5 -188.499v-155h-474v-319c0 -56.667 20.167 -105.334 60.5 -146.001s89.166 -61 146.499 -61s106.166 20.333 146.499 61s60.5 89.334 60.5 146.001zM665.002 741l-0.00195312 -95h414
v95c0 56.667 -20.167 105.334 -60.5 146.001s-89.166 61 -146.499 61s-106.166 -20.333 -146.499 -61s-60.5 -89.334 -60.5 -146.001zM605 741c0 56.667 -20.167 105.334 -60.5 146.001s-89.166 61 -146.499 61s-106.166 -20.333 -146.499 -61s-60.5 -89.334 -60.5 -146.001
v-474c0 -56.667 20.167 -105.334 60.5 -146.001s89.166 -61 146.499 -61s106.166 20.333 146.499 61s60.5 89.334 60.5 146.001v474z" />
    <glyph glyph-name="circumflex" unicode="&#x2c6;" 
d="M191 1736l444 444l444 -444h-84l-360 359l-359 -359h-85z" />
    <glyph glyph-name="Euro" unicode="&#x20ac;" horiz-adv-x="1248" 
d="M914 1594c71.333 0 142.667 -9.66699 214 -29v-62c-68 20.667 -138.333 31 -211 31c-108 0 -211.5 -22.667 -310.5 -68s-183.833 -110.333 -254.5 -195c-64.667 -78 -111.667 -165.667 -141 -263h917v-60h-933c-10 -50 -15 -100.333 -15 -151s5 -101 15 -151h933v-60
h-917c29.333 -97.333 76.333 -185 141 -263c70.667 -84.667 155.5 -149.667 254.5 -195s202.5 -68 310.5 -68c72.667 0 143 10.333 211 31v-63c-68 -18.667 -138.333 -28 -211 -28c-116 0 -227.667 24.5 -335 73.5s-199.333 119.5 -276 211.5
c-61.333 72.667 -107.666 153 -138.999 241s-47 178.333 -47 271s15.667 183 47 271s77.666 168.333 138.999 241c76.667 91.333 168.167 161.5 274.5 210.5s217.5 73.833 333.5 74.5z" />
    <glyph glyph-name="glyph1" horiz-adv-x="0" 
 />
    <glyph glyph-name="glyph2" horiz-adv-x="682" 
 />
  </font>
</defs>
</svg>
